<svg xmlns="http://www.w3.org/2000/svg" xmlns:xlink="http://www.w3.org/1999/xlink" width="188" height="159" viewBox="0 0 188 159">
    <defs>
        <path id="ngikqjjsfa" d="M148.25 36.678c.705 1.743 6.753 6.322 6.753 6.322s1.97-1.502 3.796-3.12c1.367-1.196 2.643-2.457 2.946-3.202.717-1.733-.045-4.212-2.688-4.632-2.632-.42-4.054 2.164-4.054 2.164s-1.423-2.584-4.066-2.164c-.459.074-.862.21-1.21.4-1.645.86-2.06 2.803-1.477 4.232"/>
    </defs>
    <g fill="none" fill-rule="evenodd" transform="translate(0 1)">
        <path fill="#F2F8FE" d="M178.164 33c4.573 0 8.295 3.647 8.43 8.176l.003.253c0 4.655-3.781 8.428-8.433 8.428H166.94c4.572 0 8.295 3.647 8.428 8.176l.004.253c0 4.655-3.776 8.428-8.432 8.428h-7.408c-4.66 0-8.432 3.774-8.432 8.429 0 4.645 3.775 8.428 8.432 8.428h20.03c4.575 0 8.3 3.647 8.433 8.176L188 92c0 4.655-3.777 8.429-8.436 8.429l-19.344-.001.001.076c-.29-.039-.584-.063-.882-.072l-.253-.003h-21.02c-4.66 0-8.43 3.773-8.43 8.428 0 4.646 3.774 8.429 8.43 8.429h21.02c.385 0 .764-.026 1.135-.076l-.001.075h6.156c4.574 0 8.298 3.647 8.432 8.177l.004.252c0 4.655-3.777 8.429-8.436 8.429h-16.83c4.571 0 8.293 3.647 8.426 8.176l.004.252c0 4.655-3.776 8.429-8.43 8.429H21.057c-4.655 0-8.43-3.783-8.43-8.429 0-4.655 3.777-8.428 8.43-8.428h5.058c-4.66 0-8.436-3.783-8.436-8.429 0-4.655 3.776-8.428 8.436-8.428H8.436c-4.659 0-8.436-3.783-8.436-8.429 0-4.655 3.777-8.428 8.436-8.428h26.07c4.643 0 8.425-3.774 8.425-8.429l-.003-.253c-.134-4.529-3.853-8.176-8.422-8.176h-4.464c-4.659 0-8.436-3.783-8.436-8.428 0-4.655 3.777-8.429 8.436-8.429H16.293c-4.66 0-8.436-3.783-8.436-8.428 0-4.655 3.776-8.429 8.436-8.429h14.378c-4.658 0-8.434-3.783-8.434-8.428 0-4.655 3.781-8.429 8.434-8.429h147.493z" opacity=".883"/>
        <g stroke="#2B478B" stroke-width="1.92" transform="translate(35 17)">
            <rect width="5.28" height="8.64" y="6.24" rx=".96"/>
            <path d="M5.76 7.2C8 5.28 8.96 2.88 8.64 0c1.92 0 2.88.8 2.88 2.4v2.88c4.8-.32 6.72.64 5.76 2.88.64 1.28.48 2.08-.48 2.4.32 1.28 0 2.08-.96 2.4.32 1.6-.32 2.4-1.92 2.4H7.2l-1.92-1.44"/>
        </g>
        <path fill="#FFE9DC" d="M123.052 84.655s-6.893 13.79-13.896 23.31c-2.786 3.79-5.59 6.901-7.982 8.199-2.342 1.27-4.325 3.243-5.966 5.43-4.25 5.66-6.21 12.748-6.21 12.748l-17.906-27.09s.61-26.48 2.76-30.91c3.134-6.455 4.648-19.497 5.851-22.093.893-1.926 3.444-11.876 3.688-12.607.107-.315.955-.797 2.057-.797.884 0 2.386.854 2.765 2.61 1.914 8.879-.39 14.735-.364 14.995.675 6.823-1.355 11.888.069 13.23.053.05.15.026.29-.063 2.469-1.585 17.79-23.921 19.677-24.404 1.993-.508 15.167 37.442 15.167 37.442"/>
        <path fill="#152747" d="M94.385 128.981s-.244 12.038-.942 28.252H48.276c10.324-22.017 19.3-40.547 19.3-40.547s25.717.786 26.809 12.295"/>
        <path fill="#FFE9DC" d="M138.708 37.982l-5.545 8.129-5.441 7.977c-.332.4-.716.54-1.132.5-1.305-.124-2.92-2.008-4.18-3.05l-.128-.105c-1.66-1.373-1.894-3.855-.521-5.515l8.317-10.053 2.466-2.982c1.374-1.66 3.855-1.895 5.515-.521l.128.104c1.66 1.374 1.894 3.856.52 5.516"/>
        <path fill="#F1C27D" d="M133.163 46.11l-5.441 7.978c-.332.4-.716.54-1.132.5l3.488-18.723c.007.105.6 8.506 3.085 10.246M109.156 107.965c-2.786 3.79-5.59 6.901-7.982 8.199-2.342 1.27-4.325 3.243-5.966 5.43-1.887-.88-4.038-1.913-6.141-2.935-2.56-1.244-2.659-4.88-.151-6.227l.072-.04c2.35-1.345 4.758-6.093 4.758-6.093l15.41 1.666z"/>
        <path fill="#FFF" d="M83.267 42.054l-1.451 5.857s1.268.519 2.083.116c.814-.403 1.479-5.658-.632-5.973"/>
        <path fill="#2B478B" d="M124.99 110.733H93.792c-3.068 0-5.58-2.51-5.58-5.58V36.58c0-3.069 2.512-5.58 5.58-5.58h31.198c3.069 0 5.58 2.511 5.58 5.58v68.575c0 3.068-2.511 5.58-5.58 5.58"/>
        <path fill="#F2F2F2" d="M128.47 37.107v66.985c0 2.273-1.846 4.132-4.101 4.132H94.413c-2.255 0-4.1-1.86-4.1-4.132V37.107c0-2.272 1.845-4.131 4.1-4.131h29.956c2.255 0 4.101 1.859 4.101 4.131"/>
        <path fill="#FAFCFF" d="M124.369 32.976l-29.586 75.248h-.37c-2.255 0-4.1-1.86-4.1-4.132V37.107c0-2.272 1.845-4.131 4.1-4.131h29.956z"/>
        <path fill="#2B478B" d="M115.651 35.467h-12.52c-1.02 0-1.854-.834-1.854-1.854v-.292c0-1.02.834-1.854 1.854-1.854h12.52c1.02 0 1.855.834 1.855 1.854v.292c0 1.02-.835 1.854-1.855 1.854"/>
        <path fill="#FFE9DC" d="M135.948 68.68l-.827.314-5.56 2.113c-.131.05-.263.092-.395.125-1.841.479-3.8-.503-4.49-2.32l-.082-.213c-.74-1.948.247-4.146 2.195-4.886l5.184-1.97.376-.143.827-.315c1.947-.74 4.145.248 4.885 2.195l.081.214c.74 1.947-.247 4.146-2.194 4.886"/>
        <path fill="#FFF" d="M131.432 68.807c-.928.352-2.608.976-3.507 1.105-.254.037-.722-.102-1.16-.58-.262-.287-.513-.695-.699-1.262-.087-.266-.16-.531-.19-.805-.034-.32-.025-.64.03-.957.052-.286.247-.546.531-.683l.004-.002c.956-.456 2.244-1.012 3.373-1.322.78-.216 1.57.129 1.817.812l.117.319.597 1.634c.247.68-.155 1.456-.913 1.741"/>
        <path fill="#FFD3B9" d="M131.432 68.807c-.928.352-2.608.976-3.507 1.105-.254.037-.722-.102-1.16-.58-.046-.11-.089-.224-.13-.347-.087-.266-.159-.531-.19-.805-.034-.32-.025-.64.031-.957.05-.286.246-.546.53-.683l.005-.002c.955-.457 2.243-1.013 3.372-1.323.5-.138 1.003-.046 1.365.217l.597 1.634c.247.68-.155 1.456-.913 1.741"/>
        <path fill="#FFE9DC" d="M133.424 76.497l-4.288 1.168c-1.303.355-2.659-.421-3.014-1.724l-.132-.486c-.355-1.303.421-2.659 1.724-3.014l4.288-1.167c1.303-.355 2.66.421 3.014 1.724l.132.485c.355 1.303-.42 2.66-1.724 3.014"/>
        <path fill="#FFF" d="M131.106 76.287c-.788.21-2.212.581-2.958.622-.271.015-.815-.214-1.17-.928-.087-.173-.161-.373-.22-.605-.051-.21-.09-.418-.095-.63-.005-.249.026-.494.096-.734.062-.216.241-.403.484-.49.002 0 .003 0 .004-.002.818-.288 1.915-.633 2.865-.799.655-.114 1.277.2 1.43.741l.112.387.33 1.16c.152.536-.235 1.107-.878 1.278"/>
        <path fill="#FFD3B9" d="M131.106 76.287c-.788.21-2.212.581-2.958.622-.271.015-.815-.214-1.17-.928-.048-.196-.082-.392-.086-.592-.005-.247.026-.494.095-.733.062-.216.242-.404.485-.49l.004-.002c.817-.289 1.915-.633 2.864-.798.543-.096 1.064.105 1.314.483l.33 1.16c.152.536-.235 1.107-.878 1.278"/>
        <path fill="#C8C2BF" d="M63.179 125.82s8.826 8.453 14.776 11.717l4.505-3.195v4.713s8.86 1.567 11.654 0v-12.854L69.23 113.727l-6.051 12.093z"/>
        <path fill="#FFF" d="M95.994 138.033c-3.428.703-10.816-1.99-10.816-1.99l1.192-11.51-8.35 9.561c-4.248-1.58-10.893-5.707-14.84-8.274-1.966-1.28-3.264-2.171-3.264-2.171 5.571-8.965 11.176-17.35 11.176-17.35 1.645 3.29 5.538 6.148 9.758 8.433 7.013 3.799 14.93 6.018 14.93 6.018-.002 6.84.214 17.283.214 17.283"/>
        <path fill="#FFE9DC" d="M135.812 60.462l-.092.031-5.622 1.443c-2.472.636-5.028-.702-5.68-2.972l-.335-1.162c-.627-2.18.72-4.458 3.018-5.197l1.856-.477 3.765-.966c2.472-.636 5.029.702 5.681 2.971l.334 1.163c.618 2.15-.685 4.395-2.925 5.166"/>
        <path fill="#FFF" d="M133.236 58.892l-2.731 1.231-.017.004c-.11.03-.22.052-.33.068-.046.007-.093.013-.139.018-.02.002-.038.002-.058 0-.3-.01-.507-.329-.377-.613.258-.562.328-1.213.155-1.852l-.065-.238-.002-.007-.212-.776c-.168-.618-.524-1.135-.99-1.509-.056-.046-.114-.088-.173-.13-.54-.373-.402-1.22.23-1.396l.017-.005 2.998-.453c.74-.201 1.454.369 1.657 1.11l.24.883.513 1.883c.2.743.025 1.581-.716 1.782"/>
        <path fill="#FFD3B9" d="M133.236 58.892l-2.731 1.231-.017.004c-.064.012-.265.046-.527.087-.3-.01-.507-.33-.377-.614.258-.562.328-1.213.155-1.852l-.065-.238-.002-.007-.212-.776c-.168-.618-.524-1.135-.99-1.509.097-.141.241-.253.43-.306l.017-.005 2.998-.453c.624-.17 1.228.208 1.524.773l.513 1.883c.2.743.025 1.581-.716 1.782"/>
        <path fill="#F1C27D" d="M88.213 89.703s-1.227-10.706-2.358-12.793c-1.132-2.088-2.09-6.269-.349-9.375 1.741-3.108 2.343-9.085 2.343-9.085.675 6.823-1.356 11.888.069 13.23.053.05.15.026.29-.063l.005 18.086z"/>
        <path fill="#49D586" d="M68.242 72.266h47.081c1.635 0 2.96-1.199 2.96-2.677V52.53c0-1.48-1.325-2.678-2.96-2.678h-47.08c-1.635 0-2.96 1.199-2.96 2.678v17.058c0 1.478 1.325 2.677 2.96 2.677"/>
        <path fill="#9ABFF6" d="M115.904 47.015H99.233c-1.237 0-2.24-1.003-2.24-2.24v-3.161c0-1.237 1.003-2.24 2.24-2.24h16.671c1.237 0 2.24 1.003 2.24 2.24v3.161c0 1.237-1.003 2.24-2.24 2.24M115.173 103.036h-19.22c-1.481 0-2.682-1.2-2.682-2.682v-4.063c0-1.48 1.2-2.681 2.682-2.681h19.22c1.481 0 2.682 1.2 2.682 2.681v4.063c0 1.481-1.2 2.682-2.682 2.682"/>
        <path fill="#F99746" d="M122.643 89.703h-18.157c-1.775 0-3.213-1.438-3.213-3.213v-7.105c0-1.774 1.438-3.213 3.213-3.213h18.157c1.775 0 3.213 1.439 3.213 3.213v7.105c0 1.775-1.438 3.213-3.213 3.213"/>
        <path fill="#FFE9DC" d="M173.978 157.238h-33.125c-1.588-1.065-9.837-6.692-13.25-10.887-.723-.889-3.37-8.55-5.403-14.77-1.269-3.885-2.3-7.21-2.474-7.972-.06-.266-.101-.792-.125-1.505v-.007c-.087-2.544.031-7.45.153-11.346v-.018l.003-.051.016-.507v-.006l.002-.05.064-1.895c.05-1.45.094-2.541.112-2.968l.007-.199h.002c.052-.03 1.646-.88 3.775.654.515.37.99 1.266 1.423 2.435.277.746.537 1.603.78 2.505.93 3.473 1.597 7.625 1.953 8.736.575 1.797 7.347 9.696 7.77 10.187l.02.025v-12.475l-5.112-13.68-2.099-5.616-1.055-2.823s-1.617-2.656-2.975-5.851c-.594-1.399-1.138-2.9-1.475-4.327-.08-.34-.149-.676-.204-1.005v-.001c-.2-1.206-.213-2.325.064-3.236.495-1.622 1.61-1.927 2.466-1.894.088.003.174.01.257.02.083.01.166.026.246.047.15.04.293.1.425.177.002 0 .002.001.003.002.22.128.409.304.555.52l1.693 2.212 2.099 2.751c1.274 1.676 2.458 3.239 2.784 3.697 1.758 2.476 6.495 10.545 6.495 10.545l5.544.233c.878.036 1.714.386 2.356.986 1.972 1.841 6.222 5.825 6.743 6.417 0 .195 3.303 1.783 5.854 3.197 1.825.771 5.292 3.504 5.292 3.504.719.635 1.266 1.266 1.543 1.87 1.189 2.586 4.413 25.086 5.955 36.208.496 3.576.818 5.976.843 6.16"/>
        <path fill="#F1C27D" d="M139.848 98.662s5.136 8.383 5.816 8.761c.68.378 3.323.906 3.625 0 .302-.906-9.441-8.761-9.441-8.761M165.663 113.023l-.026-.024s-3.467-2.733-5.292-3.504c-2.342-1.298-5.318-2.743-5.79-3.122.544.622 4.37 4.95 5.841 5.275 1.293.285 4.228 1.088 5.267 1.375M135.682 129.6v-12.477s2.963 4.958 3.19 7.677c.227 2.718-1.231 7.12-3.19 4.8"/>
        <path fill="#FFF" d="M124.928 83.819c-.433-.743-1.209-2.09-1.476-2.844-.075-.214-.066-.64.196-1.094.157-.273.404-.555.778-.807.176-.119.354-.224.546-.295.225-.081.458-.125.698-.129.217-.002.443.124.597.347l.002.003c.515.75 1.165 1.77 1.608 2.694.306.638.21 1.374-.237 1.698l-.208.152-1.068.78c-.443.322-1.083.102-1.436-.505"/>
        <path fill="#FFD3B9" d="M124.928 83.819c-.433-.743-1.209-2.09-1.476-2.844-.075-.214-.066-.64.196-1.094.07-.058.145-.114.226-.169.176-.118.354-.223.546-.294.225-.082.458-.126.698-.129.217-.002.443.124.597.347l.002.003c.515.75 1.166 1.77 1.608 2.693.196.41.227.858.107 1.212l-1.068.78c-.443.322-1.083.102-1.436-.505"/>
        <use stroke="#979797" stroke-width=".96" xlink:href="#ngikqjjsfa"/>
        <use stroke="#2B478B" stroke-width="1.92" xlink:href="#ngikqjjsfa"/>
        <g stroke="#2B478B" stroke-width="1.6">
            <path d="M2.08 0h13.555c1.08 0 1.965.907 1.965 2.016v6.102c0 1.018-.812 1.852-1.805 1.852h-.348l.653 2.83L12 9.97H1.963C.883 9.97 0 9.063 0 7.955v-5.82C0 .96.936 0 2.08 0" transform="translate(28 87)"/>
            <path stroke-linecap="round" d="M3.2 3.2L12.8 3.2M3.2 6.4L8.8 6.4" transform="translate(28 87)"/>
        </g>
        <path fill="#9EC3F6" d="M146.714 88.666L159.797 92.944 151.96 85.305 151.165 87.172 147.797 87.188z"/>
        <path fill="#FFF" d="M159.797 92.944L149.643 85.219 138.794 82.741zM151.96 85.305L159.798 92.944 154.574 82.243zM88.763 60.214c0 1.596-.537 3.065-1.442 4.238-.3.39-.64.746-1.015 1.063-1.21 1.027-2.778 1.646-4.49 1.646-1.556 0-2.992-.51-4.15-1.375-.51-.38-.967-.83-1.355-1.334-.905-1.173-1.443-2.642-1.443-4.238 0-3.837 3.11-6.947 6.948-6.947 3.837 0 6.947 3.11 6.947 6.947"/>
        <path fill="#2B478B" d="M84.607 63.498l-.054-.058c-.08-.062-.16-.1-.48-.155-.164-.028-.391-.06-.713-.102 0 0-.07-.008-.106-.01l-.08-.008c-.093-.048-.116-.43-.116-.833l.001-.091c.002-.153.007-.303.012-.439l.001-.025c.199.017.33.015.33.015.37-.03.602-1.021.685-1.824 0 0 .182-.44.182-.915 0-.268-.057-.547-.237-.766-.094-.112-.18-.186-.26-.233-.023-.023-.047-.044-.07-.064-.344-.382-1.744-1.815-2.663-.986-.023-.083-.322-1.014-1.77-.709.09-.01.732-.07.917.19-.025-.01-.586-.26-.94-.042-.163.099-.264.306-.322.523l-.001.004-.001.004-.001.007-.02.089-.004.013v.005c-.043.225-.043.443-.018.55.054.226.454.901.719.901.1 0 .207-.033.302-.074-.04.12-.077.25-.108.393-.281 1.324.599 2.33 1.055 2.081.292-.16.513.352.513.352l.001-.002c-.043.968-.309 1.6-.506 1.758-.07.008-.223.027-.414.057 0 0-.672.073-1.183.295l-.012.005c-.117.049-.216.103-.29.162l-.002.002c-.04.03-.07.063-.094.098-.012.014-.022.028-.03.044-.17.325-.343.814-.508 1.387.982.733 2.2 1.166 3.52 1.166 1.452 0 2.78-.524 3.808-1.396-.378-.786-.808-1.191-1.043-1.37"/>
        <path fill="#FFF" d="M101.412 56.714h-7.891c-.274 0-.498-.224-.498-.497v-.238c0-.273.224-.497.498-.497h7.891c.274 0 .498.224.498.497v.238c0 .273-.224.497-.498.497M101.508 61.144h-8.083c-.221 0-.402-.18-.402-.402 0-.22.18-.401.402-.401h8.083c.22 0 .402.18.402.401 0 .221-.181.402-.402.402M97.93 63.045h-4.6c-.169 0-.307-.138-.307-.307v-.188c0-.17.138-.308.308-.308h4.599c.169 0 .307.138.307.308v.188c0 .169-.138.307-.307.307M107.303 63.045H99.87c-.212 0-.386-.173-.386-.386v-.031c0-.212.174-.386.386-.386h7.432c.212 0 .385.174.385.386v.031c0 .213-.173.386-.385.386M114.246 61.144h-10.6c-.22 0-.4-.18-.4-.402 0-.22.18-.401.4-.401h10.6c.22 0 .401.18.401.401 0 .221-.18.402-.401.402M101.508 64.947h-8.083c-.221 0-.402-.181-.402-.402 0-.221.18-.402.402-.402h8.083c.22 0 .402.181.402.402 0 .22-.181.402-.402.402M114.246 64.947h-10.6c-.22 0-.4-.181-.4-.402 0-.221.18-.402.4-.402h10.6c.22 0 .401.181.401.402 0 .22-.18.402-.401.402M109.105 56.714h-5.668c-.235 0-.426-.192-.426-.426v-.38c0-.234.191-.426.426-.426h5.668c.234 0 .426.192.426.426v.38c0 .234-.192.426-.426.426"/>
        <path fill="#699DEE" d="M101.958 96.288h-5.61c-.195 0-.354-.16-.354-.354v-.169c0-.194.16-.354.354-.354h5.61c.195 0 .354.16.354.354v.169c0 .194-.16.354-.354.354M102.026 98.53H96.28c-.157 0-.285-.128-.285-.285 0-.157.128-.286.285-.286h5.747c.157 0 .286.129.286.286 0 .157-.129.286-.286.286M99.482 99.882h-3.27c-.12 0-.218-.098-.218-.218v-.134c0-.12.098-.219.219-.219h3.27c.12 0 .218.099.218.219v.134c0 .12-.098.218-.219.218M106.146 99.882h-5.283c-.151 0-.275-.123-.275-.274v-.022c0-.151.124-.275.275-.275h5.283c.151 0 .274.124.274.275v.022c0 .15-.123.274-.274.274M111.082 98.53h-7.535c-.157 0-.286-.128-.286-.285 0-.157.129-.286.286-.286h7.535c.158 0 .286.129.286.286 0 .157-.128.286-.286.286M102.026 101.234H96.28c-.157 0-.285-.128-.285-.286 0-.157.128-.285.285-.285h5.747c.157 0 .286.128.286.285 0 .158-.129.286-.286.286M111.082 101.234h-7.535c-.157 0-.286-.128-.286-.286 0-.157.129-.285.286-.285h7.535c.158 0 .286.128.286.285 0 .158-.128.286-.286.286M107.427 96.288h-4.03c-.166 0-.302-.137-.302-.303v-.27c0-.167.136-.304.303-.304h4.03c.166 0 .302.137.302.303v.27c0 .167-.136.304-.303.304M105.68 41.724h-5.61c-.195 0-.354-.16-.354-.354v-.168c0-.195.16-.354.354-.354h5.61c.195 0 .354.16.354.354v.168c0 .195-.159.354-.354.354M105.748 43.967h-5.747c-.157 0-.285-.128-.285-.285 0-.158.128-.286.285-.286h5.747c.158 0 .286.128.286.286 0 .157-.128.285-.286.285M103.204 45.319h-3.27c-.12 0-.218-.099-.218-.219v-.134c0-.12.098-.218.219-.218h3.27c.12 0 .218.098.218.218v.134c0 .12-.098.219-.219.219M109.868 45.319h-5.283c-.151 0-.275-.124-.275-.275v-.022c0-.15.124-.274.275-.274h5.283c.151 0 .275.123.275.274v.022c0 .151-.124.275-.275.275M114.805 43.967h-7.536c-.157 0-.286-.128-.286-.285 0-.158.129-.286.286-.286h7.536c.157 0 .285.128.285.286 0 .157-.128.285-.285.285M111.15 41.724h-4.03c-.167 0-.303-.136-.303-.303v-.27c0-.167.136-.303.303-.303h4.03c.166 0 .302.136.302.303v.27c0 .167-.136.303-.302.303"/>
        <path fill="#ED7D2B" d="M110.64 79.612h-6.143c-.213 0-.387-.175-.387-.388v-.184c0-.213.174-.388.387-.388h6.143c.213 0 .387.175.387.388v.184c0 .213-.174.388-.387.388M110.714 82.067h-6.292c-.171 0-.312-.14-.312-.312s.14-.313.312-.313h6.292c.172 0 .313.14.313.313 0 .171-.14.312-.313.312M107.929 83.547h-3.58c-.131 0-.24-.108-.24-.24v-.146c0-.131.109-.24.24-.24h3.58c.132 0 .24.109.24.24v.147c0 .131-.108.239-.24.239M115.225 83.547h-5.785c-.165 0-.3-.135-.3-.3v-.025c0-.165.135-.3.3-.3h5.785c.165 0 .3.135.3.3v.025c0 .165-.135.3-.3.3M120.629 82.067h-8.25c-.172 0-.313-.14-.313-.312s.141-.313.313-.313h8.25c.172 0 .313.14.313.313 0 .171-.141.312-.313.312M110.714 85.027h-6.292c-.171 0-.312-.14-.312-.313 0-.172.14-.312.312-.312h6.292c.172 0 .313.14.313.312s-.14.313-.313.313M120.629 85.027h-8.25c-.172 0-.313-.14-.313-.313 0-.172.141-.312.313-.312h8.25c.172 0 .313.14.313.312s-.141.313-.313.313M110.714 86.567h-6.292c-.171 0-.312-.14-.312-.312s.14-.313.312-.313h6.292c.172 0 .313.14.313.313 0 .172-.14.312-.313.312M120.629 86.567h-8.25c-.172 0-.313-.14-.313-.312s.141-.313.313-.313h8.25c.172 0 .313.14.313.313 0 .172-.141.312-.313.312M116.627 79.612h-4.411c-.183 0-.332-.15-.332-.332v-.296c0-.182.149-.332.332-.332h4.411c.183 0 .332.15.332.332v.296c0 .182-.15.332-.332.332"/>
        <path fill="#FFF" d="M96.089 37.166l-.427.306-.429-.303c.095-.133.252-.222.43-.222.175 0 .33.086.426.22M95.662 36.2c-.43 0-.809.214-1.038.54l.27.19c.171-.24.452-.398.768-.398.314 0 .593.155.763.393l.27-.194c-.231-.322-.608-.53-1.033-.53M95.662 34.781c-.908 0-1.71.452-2.197 1.142l.271.19c.426-.604 1.131-1 1.926-1 .788 0 1.489.39 1.917.986l.268-.194c-.487-.68-1.284-1.124-2.185-1.124"/>
        <path fill="#FFF" d="M95.662 35.558c-.646 0-1.218.32-1.567.81l.271.19c.289-.404.762-.668 1.296-.668.53 0 1 .26 1.29.658l.268-.193c-.35-.483-.917-.797-1.558-.797M93.265 82.385c0 .627.211 1.204.567 1.664.118.154.252.294.399.418.146.124.305.233.475.324.384.206.821.323 1.288.323.582 0 1.12-.182 1.564-.493l.066-.047c.2-.15.38-.326.532-.525.356-.46.567-1.037.567-1.664 0-1.507-1.222-2.728-2.73-2.728-1.506 0-2.728 1.221-2.728 2.728"/>
        <path fill="#699DEE" d="M96.733 84.135l-.252-.222-.062.011c-.046-.031-.095-.062-.147-.091l.042-.28c.038-.292.042-.468.042-.496.133-.006.223-.02.223-.02.252-.059.264-.92.206-1.368.048.001.094-.005.14-.026.191-.085.202-.373.202-.373s-.055.103-.137.136c0 0 .32-.437-.05-.736-.37-.3-.746-.104-.96-.09-.471.028-.776.056-.93.366-.151.305-.092 1.144.2 1.453.004.03.01.057.013.086.017.11.058.202.115.274-.065.362-.214.632-.348.811-.09.07-.174.161-.25.27l-.006.004h.002c-.142.202-.258.465-.352.773l-.001.004c.154.109.32.2.497.274l.035.014.008.003.057.022c.046.018.092.035.139.05.049.016.098.03.148.043l.07.017c.02.005.04.01.06.013l.009.002.041.008.096.017.023.002.053.008.076.008.085.007.082.004.085.001.093-.001h.007l.023-.001.045-.003h.006l.086-.007c.368-.034.716-.144 1.028-.31-.159-.272-.356-.484-.542-.657"/>
        <path fill="#FFF" d="M120.055 98.245c0 .63.213 1.212.57 1.676.12.154.254.295.402.42.479.406 1.098.651 1.775.651.616 0 1.183-.202 1.641-.544.202-.15.383-.328.536-.527.358-.464.57-1.045.57-1.676 0-1.517-1.23-2.747-2.747-2.747s-2.747 1.23-2.747 2.747"/>
        <path fill="#F99746" d="M124.206 99.802c-.003-.007-.008-.015-.013-.021-.011-.016-.026-.031-.044-.045l-.001-.001c-.035-.028-.081-.053-.135-.076l-.006-.002c-.238-.104-.552-.138-.552-.138-.089-.014-.16-.022-.193-.026-.092-.074-.216-.369-.236-.82l.001.001s.103-.239.239-.164c.212.116.623-.353.492-.97-.015-.067-.032-.128-.05-.183.044.018.094.034.14.034.124 0 .31-.315.335-.421.026-.106-.002-.454-.171-.557-.165-.101-.426.016-.438.02.084-.118.372-.094.425-.089-.672-.14-.811.292-.823.33-.428-.386-1.08.282-1.241.46l-.033.031c-.036.021-.077.056-.12.108-.085.102-.111.233-.111.357 0 .222.084.427.084.427.04.374.147.837.32.85 0 0 .061.001.154-.007v.013c.003.062.005.133.006.203v.043c0 .188-.01.366-.053.389l-.038.003c-.017 0-.05.005-.05.005-.15.02-.256.035-.331.048-.15.025-.188.043-.224.072-.009.008-.018.017-.026.027-.11.083-.31.272-.486.638.479.406 1.099.65 1.775.65.616 0 1.183-.2 1.641-.543-.077-.267-.157-.495-.237-.646"/>
        <path fill="#FFF" d="M120.055 43.03c0 .631.213 1.213.57 1.676.12.154.254.295.402.42.479.407 1.098.652 1.775.652.616 0 1.183-.202 1.641-.544.202-.15.383-.328.536-.528.358-.463.57-1.045.57-1.675 0-1.518-1.23-2.747-2.747-2.747s-2.747 1.23-2.747 2.747"/>
        <path fill="#F99746" d="M124.206 44.587c-.003-.007-.008-.014-.013-.02-.011-.017-.026-.032-.044-.046h-.001c-.035-.028-.081-.053-.135-.076l-.006-.003c-.238-.103-.552-.138-.552-.138-.089-.014-.16-.022-.193-.026-.022-.018-.046-.047-.07-.09-.076-.134-.15-.386-.166-.73l.001.002s.103-.239.239-.165c.212.116.623-.352.492-.97-.015-.066-.032-.128-.05-.183.044.019.094.035.14.035.124 0 .31-.316.335-.42.026-.107-.002-.455-.171-.558-.165-.101-.426.015-.438.02.084-.118.373-.094.425-.09-.672-.139-.811.293-.823.331-.428-.386-1.08.282-1.241.46l-.033.03c-.036.022-.077.057-.12.11-.085.1-.111.231-.111.356 0 .222.084.427.084.427.04.374.147.836.32.85 0 0 .061 0 .154-.007v.012c.003.063.005.133.006.204v.043c0 .188-.01.366-.053.389-.015 0-.027.002-.038.003l-.05.005c-.15.02-.256.034-.331.047-.15.026-.188.043-.224.072l-.026.027c-.11.083-.31.273-.486.64.026.021.052.043.08.064l.013.01c.02.017.04.032.062.046.014.012.028.022.044.032l.045.03c.022.017.044.031.067.045.015.01.03.02.046.028l.058.034c.021.013.043.025.064.036l.006.003.004.002.01.005c.017.01.034.018.052.027l.003.001.016.008.03.015.028.013.067.03.068.027.031.013.03.011.064.022.067.022.056.017.005.002.036.01c.066.018.133.034.2.047l.09.015.022.004h.005l.003.001.058.008.012.001c.003 0 .006 0 .009.002l.053.005.01.001.016.002.096.007h.005l.03.001h.02c.031.002.063.003.094.003.616 0 1.183-.202 1.641-.544-.077-.267-.157-.495-.237-.647"/>
        <path fill="#F1C27D" d="M157.336 152.115l-9.895 5.123h-6.588c-1.588-1.065-9.837-6.692-13.25-10.887-.723-.889-3.37-8.55-5.403-14.77v-.003c.27.826 5.945 12.911 7.56 14.285 1.616 1.373 10.1 9.372 12.442 9.29 2.27-.078 14.351-2.858 15.1-3.03l.034-.008"/>
        <path fill="#FFF" d="M177.245 157.238h-35.673c1.79-.702 8.634-3.317 15.73-5.115l.034-.008c6.094-1.542 12.367-2.476 15.774-1.074l.025.036 4.11 6.16z"/>
        <path fill="#F1C27D" d="M119.774 110.118h.003c.6-.22 1.445-.366 1.856.32.639 1.067-1.736 10.481-2.032 11.665l.173-11.985z"/>
        <path fill="#F7F1EE" d="M119.959 105.056l-.205 5.695s1.198.195 1.879-.313c.68-.509.32-5.448-1.674-5.382"/>
        <path fill="#F6F5F5" d="M95.994 138.033c-3.428.703-10.816-1.99-10.816-1.99l1.192-11.51-8.35 9.561c-4.248-1.58-10.893-5.707-14.84-8.274 10.116-1.103 17.67-11.088 17.67-11.088 7.013 3.799 14.93 6.018 14.93 6.018-.002 6.84.214 17.283.214 17.283"/>
        <path fill="#FFDBAC" d="M72.47 127.578c.008-.767.636-1.384 1.403-1.377.768.007 1.384.635 1.377 1.403-.007.767-.635 1.384-1.403 1.377-.767-.008-1.383-.636-1.376-1.403"/>
        <path stroke="#6866F8" stroke-dasharray="4" stroke-width="2" d="M30.208 41C26.853 49.035 25 57.853 25 67.102c0 3.253.23 6.452.672 9.583M159.774 80c.805-4.176 1.226-8.488 1.226-12.898 0-6.452-.901-12.693-2.585-18.605M145 24C132.572 9.298 114.229 0 93.768 0 78.91 0 65.17 4.903 54 13.217" opacity=".711"/>
        <path fill="#FFF" fill-rule="nonzero" d="M72.974 63.185c-.09-.247-.374-.388-.648-.315l-.347.102c-.37.106-.77.072-1.117-.088-.359-.17-.754-.257-1.154-.257-.058 0-.132 0-.21.005.12-.262.194-.538.22-.825 0-.014.006-.029.006-.043.016-.18.02-.345.02-.539h1.339c.29 0 .527-.218.527-.485s-.237-.485-.527-.485h-1.422c-.032-.194-.074-.388-.122-.582-.068-.243-.105-.495-.11-.742 0-.126.026-.253.073-.374.053-.111.122-.218.216-.305.095-.088.211-.16.332-.204.143-.054.29-.078.443-.078.764 0 .943.393 1.011.689.058.262.338.432.622.374.285-.054.469-.31.406-.573-.21-.926-.954-1.46-2.04-1.46-.294 0-.584.053-.853.155-.252.097-.484.243-.68.422l-.004.005c-.185.18-.332.388-.432.616 0 .005 0 .005-.006.01-.1.233-.147.48-.147.728.005.33.052.654.142.97.032.116.058.252.08.349h-1.065c-.29 0-.527.218-.527.485s.237.485.527.485h1.159c0 .146-.005.296-.016.442.01.01.005.024.005.038-.026.325-.152.636-.363.898l-.269.34c-.174.218-.121.519.11.679.106.072.243.106.375.092l1-.112h.006c.058-.005.116-.01.174-.01.237 0 .464.054.674.15.359.17.748.258 1.149.258.253 0 .506-.034.753-.102l.353-.102c.274-.082.427-.359.337-.611z"/>
        <path fill="#2B478B" fill-rule="nonzero" d="M101.983 44.418c-.06-.177-.25-.277-.432-.225l-.232.072c-.246.077-.513.052-.745-.062-.238-.121-.502-.184-.769-.184-.038 0-.088 0-.14.004.08-.187.13-.385.147-.59 0-.01.004-.02.004-.03.01-.129.014-.246.014-.385h.892c.193 0 .351-.156.351-.346 0-.191-.158-.347-.351-.347h-.948c-.021-.139-.05-.277-.081-.416-.046-.173-.07-.353-.074-.53 0-.09.018-.18.05-.267.034-.08.08-.156.143-.218.064-.062.14-.114.222-.146.094-.038.193-.055.295-.055.509 0 .628.28.674.492.039.187.225.308.414.267.19-.038.313-.222.27-.409-.14-.662-.635-1.043-1.358-1.043-.197 0-.39.038-.57.11-.168.07-.322.174-.452.302l-.004.004c-.123.128-.221.277-.288.44 0 .003 0 .003-.003.007-.067.166-.099.343-.099.52.004.235.035.467.095.693.021.083.039.18.053.249h-.71c-.193 0-.351.156-.351.347 0 .19.158.346.351.346h.773c0 .104-.004.211-.01.315.006.007.003.018.003.028-.018.232-.102.454-.242.641l-.18.243c-.115.156-.08.37.074.485.07.052.162.076.25.066l.667-.08h.003c.039-.004.078-.007.116-.007.158 0 .31.038.45.107.239.122.499.184.766.184.168 0 .337-.024.502-.073l.235-.073c.183-.058.285-.256.225-.436z"/>
        <g fill="#FFF" fill-rule="nonzero">
            <path d="M5.974 6.185c-.09-.247-.374-.388-.648-.315l-.347.102c-.37.106-.77.072-1.117-.088-.359-.17-.754-.257-1.154-.257-.058 0-.132 0-.21.005.12-.262.194-.538.22-.825 0-.014.006-.029.006-.043.016-.18.02-.345.02-.539h1.339c.29 0 .527-.218.527-.485s-.237-.485-.527-.485H2.661c-.032-.194-.074-.388-.122-.582-.068-.243-.105-.495-.11-.742 0-.126.026-.253.073-.374.053-.111.122-.218.216-.305.095-.088.211-.16.332-.204.143-.054.29-.078.443-.078.764 0 .943.393 1.011.689.058.262.338.432.622.374.285-.054.469-.31.406-.573C5.322.534 4.578 0 3.492 0c-.294 0-.584.053-.853.155-.252.097-.484.243-.68.422l-.004.005c-.185.18-.332.388-.432.616 0 .005 0 .005-.006.01-.1.233-.147.48-.147.728.005.33.052.654.142.97.032.116.058.252.08.349H.526c-.29 0-.527.218-.527.485s.237.485.527.485h1.159c0 .146-.005.296-.016.442.01.01.005.024.005.038-.026.325-.152.636-.363.898l-.269.34c-.174.218-.121.519.11.679.106.072.243.106.375.092l1-.112h.006c.058-.005.116-.01.174-.01.237 0 .464.054.674.15.359.17.748.258 1.149.258.253 0 .506-.034.753-.102l.353-.102c.274-.082.427-.359.337-.611z" transform="translate(103 79)"/>
        </g>
    </g>
</svg>
