<svg xmlns="http://www.w3.org/2000/svg" xmlns:xlink="http://www.w3.org/1999/xlink" width="188" height="151" viewBox="0 0 188 151">
    <defs>
        <path id="fh7o5unn8a" d="M0 0.294L77.373 0.294 77.373 36.605 0 36.605z"/>
        <path id="nsi95avr3c" d="M0 0.294L70.2 0.294 70.2 36.605 0 36.605z"/>
        <path id="qe9977ypde" d="M0.216 0.293L51.237 0.293 51.237 36.605 0.216 36.605z"/>
    </defs>
    <g fill="none" fill-rule="evenodd">
        <path fill="#F2F8FE" d="M177.963 29c4.682 0 8.493 3.74 8.63 8.384l.004.259c0 4.773-3.86 8.643-8.634 8.643h-11.234c4.687 0 8.503 3.74 8.64 8.384l.004.259c0 4.773-3.864 8.642-8.644 8.642h-6.99c-4.773 0-8.638 3.87-8.638 8.643 0 4.764 3.867 8.643 8.637 8.643h19.621c4.686 0 8.5 3.74 8.637 8.384l.004.259c0 4.773-3.878 8.643-8.641 8.643l-19.139-.001v.106c-.355-.056-.718-.09-1.087-.101l-.26-.004H138.28c-4.767 0-8.643 3.87-8.643 8.643 0 4.763 3.87 8.643 8.643 8.643h20.594c.459 0 .908-.036 1.348-.105l-.001.104h5.95c4.686 0 8.501 3.74 8.638 8.384l.004.26c0 4.773-3.878 8.642-8.641 8.642h-16.838c4.686 0 8.502 3.74 8.64 8.384l.003.26c0 4.772-3.869 8.642-8.643 8.642H21.27c-4.773 0-8.643-3.88-8.643-8.643 0-4.773 3.869-8.643 8.643-8.643h5.049c-4.773 0-8.641-3.879-8.641-8.643 0-4.773 3.877-8.642 8.64-8.642H8.642c-4.772 0-8.641-3.88-8.641-8.643 0-4.774 3.878-8.643 8.641-8.643h25.64c4.775 0 8.65-3.87 8.65-8.643l-.003-.259c-.138-4.644-3.957-8.384-8.648-8.384h-4.033c-4.772 0-8.641-3.88-8.641-8.643 0-4.773 3.878-8.643 8.641-8.643h-13.75c-4.772 0-8.64-3.879-8.64-8.642 0-4.774 3.878-8.643 8.64-8.643h14.374c-4.768 0-8.634-3.88-8.634-8.643 0-4.773 3.861-8.643 8.634-8.643h147.092z" opacity=".883" transform="translate(0 1)"/>
        <path stroke="#6866F8" stroke-dasharray="4" stroke-width="2" d="M28.361 43.921C24.907 52.392 23 61.687 23 71.437c0 3.429.236 6.802.692 10.102m138.046 3.495c.828-4.402 1.262-8.948 1.262-13.597 0-6.8-.928-13.38-2.661-19.613M146 24.514C133.162 9.498 114.214 0 93.079 0 77.732 0 63.539 5.008 52 13.5" opacity=".711" transform="translate(0 1)"/>
        <g>
            <g transform="translate(0 1) translate(71 27) translate(0 85.877)">
                <mask id="2j4nwme92b" fill="#fff">
                    <use xlink:href="#fh7o5unn8a"/>
                </mask>
                <path fill="#210F2C" d="M77.373 21.594v15.01H0v-15.01C0 12.44 5.481 4.632 13.176 1.622 15.368.762 17.74.294 20.216.294h36.94c2.476 0 4.849.469 7.041 1.328 7.695 3.01 13.176 10.817 13.176 19.972" mask="url(#2j4nwme92b)"/>
            </g>
            <g transform="translate(0 1) translate(71 27) translate(0 85.877)">
                <mask id="zcpzto7l0d" fill="#fff">
                    <use xlink:href="#nsi95avr3c"/>
                </mask>
                <path fill="#362544" d="M70.2 21.594v15.01H0v-15.01C0 12.44 5.481 4.632 13.176 1.622 15.368.762 17.74.294 20.216.294h29.768c2.475 0 4.848.469 7.04 1.328C64.72 4.632 70.2 12.439 70.2 21.594" mask="url(#zcpzto7l0d)"/>
            </g>
            <g transform="translate(0 1) translate(71 27) translate(12.96 85.877)">
                <mask id="iw4kps703f" fill="#fff">
                    <use xlink:href="#qe9977ypde"/>
                </mask>
                <path fill="#3664DD" d="M51.237 1.622c-7.004 20.571-25.51 34.983-25.51 34.983S7.22 22.193.216 1.622C2.408.762 4.78.293 7.256.293h36.94c2.476 0 4.849.47 7.041 1.329" mask="url(#iw4kps703f)"/>
            </g>
            <path fill="#3F599B" d="M50.06 86.171L45.829 86.171 38.687 100.838 31.543 86.171 27.311 86.171 23.339 88.66 29.066 109.699 38.687 105.589 48.307 109.699 54.034 88.66z" transform="translate(0 1) translate(71 27)"/>
            <path fill="#527BFF" d="M38.687 104.04L47.388 107.758 52.408 89.316 47.388 86.171zM38.687 104.04L29.985 107.758 24.965 89.316 29.985 86.171z" transform="translate(0 1) translate(71 27)"/>
            <path fill="#EF7C6D" d="M64.94 28.413v27.205c0 5.032-1.532 9.962-4.475 14.053-4.371 6.075-10.822 9.755-15.568 11.8-3.976 1.712-8.446 1.712-12.423 0-1.9-.82-4.078-1.902-6.284-3.296-3.299-2.083-6.664-4.863-9.283-8.504-2.942-4.09-4.474-9.021-4.474-14.053V28.413c0-9.534 7.754-17.262 17.322-17.262h17.862c2.39 0 4.664.482 6.735 1.352 6.222 2.62 10.588 8.757 10.588 15.91" transform="translate(0 1) translate(71 27)"/>
            <path fill="#FFE9DC" d="M61.413 26.412v27.204c0 5.032-1.533 9.963-4.475 14.053-4.372 6.076-10.822 9.756-15.568 11.8-3.976 1.713-8.447 1.713-12.423 0-.87-.375-1.796-.803-2.757-1.294-3.299-2.083-6.664-4.863-9.283-8.504-2.942-4.09-4.475-9.021-4.475-14.053V28.413c0-9.534 7.755-17.262 17.323-17.262h17.862c2.39 0 4.664.482 6.735 1.352 4.283 3.142 7.061 8.202 7.061 13.909" transform="translate(0 1) translate(71 27)"/>
            <path fill="#FFE9DC" d="M47.388 79.595L47.388 93.176 38.687 104.04 29.985 93.176 29.985 79.595z" transform="translate(0 1) translate(71 27)"/>
            <path fill="#953349" d="M47.388 79.595v1.863c-1.538.863-3.024 1.576-4.374 2.157-3.976 1.712-8.446 1.712-12.422 0-.2-.086-.402-.175-.607-.268v-3.752h17.403z" transform="translate(0 1) translate(71 27)"/>
            <path fill="#953349" d="M63.373 56.291s-.977 17.871-19.247 22.732c0 0-2.066-4.293-5.44-4.426-3.375.133-5.439 4.426-5.439 4.426C14.977 74.163 14 56.291 14 56.291V42.426s2.929-12.58 4.324-18.299c1.395-5.718 9.065-7.863 9.065-7.863 4.191 2.213 10.249 2.292 11.297 2.29 1.048.002 7.105-.077 11.298-2.29 0 0 7.67 2.145 9.065 7.863 1.395 5.718 4.324 18.299 4.324 18.299V56.29zm1.411-41.012C61.091 11.29 52.928 4.988 38.686 5.82c-14.242-.832-22.406 5.47-26.097 9.46-1.568 1.694-2.332 4.005-2.108 6.328l1.951 20.187.158 1.631-.158.897v11.295c0 5.032 1.533 9.963 4.474 14.053 4.372 6.075 10.822 9.755 15.568 11.8 3.977 1.712 8.447 1.712 12.423 0 4.746-2.045 11.197-5.725 15.568-11.8 2.943-4.09 4.475-9.02 4.475-14.053V44.33l-.158-.904.158-1.645 1.95-20.173c.225-2.323-.538-4.634-2.106-6.329z" transform="translate(0 1) translate(71 27)"/>
            <path fill="#CF5A56" d="M44.907 62.758c-.613.117-1.049.768-1.566 1.108-.564.372-1.2.6-1.853.74-1.387.297-2.624-.292-3.965-.463-.081-.01-.114.092-.085.153.701 1.495 2.792 1.911 4.244 1.774.874-.082 1.691-.373 2.453-.812.695-.4 1.537-.985 1.602-1.852.035-.468-.443-.722-.83-.648" transform="translate(0 1) translate(71 27)"/>
            <path fill="#D44267" d="M40.57 53.529c0 1.066-.844 1.93-1.883 1.93-1.04 0-1.883-.864-1.883-1.93 0-1.066.843-15.082 1.883-15.082s1.882 14.016 1.882 15.082" transform="translate(0 1) translate(71 27)"/>
            <path fill="#362544" d="M28.502 39.946c0 1.772-.624 3.209-1.395 3.209-.77 0-1.394-1.437-1.394-3.209s.624-3.209 1.394-3.209c.77 0 1.395 1.437 1.395 3.21M29.835 35.152c-1.794-.427-3.66-.427-5.455 0-.68.161-1.37-.225-1.595-.901l-.01-.027c-.26-.781.198-1.62.983-1.806 2.203-.525 4.496-.525 6.7 0 .784.187 1.243 1.025.981 1.806l-.008.027c-.226.676-.916 1.062-1.596.9M51.66 39.946c0 1.772-.624 3.209-1.395 3.209-.77 0-1.395-1.437-1.395-3.209s.625-3.209 1.395-3.209 1.395 1.437 1.395 3.21M52.993 35.152c-1.794-.427-3.66-.427-5.455 0-.68.161-1.37-.225-1.596-.901l-.009-.027c-.26-.781.198-1.62.983-1.806 2.203-.525 4.496-.525 6.699 0 .785.187 1.244 1.025.982 1.806l-.009.027c-.226.676-.915 1.062-1.595.9" transform="translate(0 1) translate(71 27)"/>
            <path fill="#3F599B" d="M37.428 122.482L39.681 122.482 39.681 105.184 37.428 105.184z" transform="translate(0 1) translate(71 27)"/>
            <path fill="#FFF" d="M42.191 111.522c0 .579-.458 1.048-1.022 1.048-.566 0-1.023-.469-1.023-1.048 0-.58.457-1.048 1.023-1.048.564 0 1.022.469 1.022 1.048M42.191 116.764c0 .579-.458 1.048-1.022 1.048-.566 0-1.023-.47-1.023-1.048 0-.58.457-1.049 1.023-1.049.564 0 1.022.47 1.022 1.049" transform="translate(0 1) translate(71 27)"/>
            <path fill="#772538" d="M64.664 21.01c-.193-.48-.688-.645-1.1-.905-.566-.36-1.077-.816-1.523-1.321-.452-.51-.813-1.096-1.121-1.706-.216-.427-.294-1.106-.728-1.346-.055-.03-.13-.016-.161.044-.237.434.08 1.012.27 1.425.312.678.698 1.295 1.154 1.88.435.56.943 1.056 1.492 1.495.424.338 1.005.866 1.576.688.096-.03.184-.148.141-.254M64.855 25.932c-.492-.882-1.507-1.449-2.228-2.127-.825-.776-1.553-1.652-2.205-2.584-.628-.898-1.168-1.859-1.634-2.855-.504-1.08-1.041-2.26-1.369-3.408-.024-.084-.138-.047-.125.035.18 1.203.356 2.295.816 3.427.454 1.116 1.022 2.178 1.685 3.177.624.94 1.348 1.811 2.12 2.626.719.758 1.659 1.83 2.733 1.985.152.022.294-.119.207-.276M24.388 12.204c-.414.22-.613.656-.878 1.033-.362.514-.752 1.005-1.159 1.482-.815.954-1.793 1.807-2.789 2.555-.976.733-2.023 1.36-3.11 1.904-.535.268-1.09.496-1.645.719-.529.212-1.1.341-1.509.766-.165.17-.102.508.145.562 1.074.231 2.387-.594 3.314-1.081 1.11-.583 2.143-1.303 3.12-2.096.99-.805 1.952-1.733 2.735-2.753.366-.478.742-.945 1.09-1.438.325-.46.79-.999.79-1.592-.001-.055-.058-.085-.104-.06M19.23 12.351c-.656.88-1.658 1.648-2.533 2.29-.845.619-1.903.972-2.62 1.743-.12.13-.025.31.133.327 1.122.129 2.179-.678 3.02-1.361 1-.81 1.554-1.787 2.171-2.896.065-.117-.096-.204-.171-.103M15.695 23.937c-.016-.136-.215-.145-.213 0 .01.855-.118 1.746-.172 2.602-.057.925-.179 1.84-.35 2.75-.16.852-.384 1.691-.638 2.518-.253.829-.624 1.651-.676 2.528-.007.104.128.151.195.083 1.165-1.193 1.496-3.353 1.776-4.944.155-.883.245-1.779.295-2.675.055-1.003-.1-1.877-.217-2.862M63.51 32.596c-.163-.675-.274-1.363-.384-2.05-.13-.809-.302-1.691-.325-2.51-.005-.183-.264-.181-.275 0-.048.795-.165 1.544-.129 2.35.033.734.136 1.457.265 2.179.237 1.33.576 2.984 1.514 3.996.106.115.323.032.312-.133-.084-1.295-.677-2.574-.979-3.832" transform="translate(0 1) translate(71 27)"/>
            <path fill="#013668" d="M12.027 48.78c0 4.457-2.635 8.07-5.885 8.07S.257 53.238.257 48.78c0-4.459 2.635-8.072 5.885-8.072s5.885 3.613 5.885 8.071" transform="translate(0 1) translate(71 27)"/>
            <path fill="#000" d="M14.669 55.094c0 2.041-1.569 3.696-3.504 3.696H8.536c-1.935 0-3.505-1.655-3.505-3.696V42.161c0-2.041 1.57-3.695 3.505-3.695h2.629c1.935 0 3.504 1.654 3.504 3.695v12.933z" transform="translate(0 1) translate(71 27)"/>
            <path fill="#013668" d="M65.347 48.78c0 4.457 2.634 8.07 5.885 8.07 3.25 0 5.885-3.613 5.885-8.07 0-4.459-2.635-8.072-5.885-8.072s-5.885 3.613-5.885 8.071" transform="translate(0 1) translate(71 27)"/>
            <path fill="#000" d="M62.705 55.094c0 2.041 1.569 3.696 3.505 3.696h2.628c1.936 0 3.505-1.655 3.505-3.696V42.161c0-2.041-1.57-3.695-3.505-3.695H66.21c-1.936 0-3.505 1.654-3.505 3.695v12.933z" transform="translate(0 1) translate(71 27)"/>
            <path fill="#000" d="M68.796 40.435h-1.452c0-21.097-13.08-38.26-29.157-38.26-16.077 0-29.156 17.163-29.156 38.26H7.578c0-21.918 13.731-39.75 30.61-39.75 16.877 0 30.608 17.832 30.608 39.75M48.598 73.856v-1.163c9.75 0 17.684-8.132 17.684-18.126h1.134c0 10.636-8.442 19.289-18.818 19.289" transform="translate(0 1) translate(71 27)"/>
            <path fill="#000" d="M49.836 73.62c0 1.66-1.374 3.005-3.07 3.005-1.697 0-3.071-1.346-3.071-3.005 0-1.66 1.374-3.005 3.07-3.005 1.697 0 3.071 1.345 3.071 3.005" transform="translate(0 1) translate(71 27)"/>
            <path fill="#953349" d="M30.755 6.83S45.26 2.891 48.328 0c0 0 1.255 3.541-1.534 7.973L30.754 6.83z" transform="translate(0 1) translate(71 27)"/>
            <path fill="#953349" d="M35.918 10.007S50.423 6.07 53.49 3.178c0 0 1.255 3.541-1.534 7.973l-16.04-1.144z" transform="translate(0 1) translate(71 27)"/>
            <path fill="#772538" d="M52.553 8.277c-.445.975-.74 1.935-1.612 2.617-.806.632-1.775 1.155-2.713 1.55-1.13.475-2.362.722-3.571.87-1.164.143-2.52-.034-3.594.485-.584.283-.342 1.104.164 1.287.627.227 1.287.128 1.935.069.737-.068 1.472-.166 2.202-.29 1.311-.221 2.61-.63 3.785-1.271 1.015-.554 1.815-1.33 2.463-2.297.583-.868 1.29-1.81 1.388-2.895.022-.24-.348-.343-.447-.125M47.272 4.585c-.838.904-1.404 2.01-2.235 2.93-.846.937-1.865 1.715-2.894 2.427-1.022.708-2.142 1.282-3.301 1.71-.58.215-1.178.368-1.776.525-.646.17-1.259.242-1.689.806-.122.161-.187.434 0 .586 1.027.832 2.599.148 3.694-.273 1.356-.52 2.615-1.238 3.773-2.125 1.086-.834 1.954-1.831 2.777-2.93.785-1.047 1.633-2.262 1.794-3.595.01-.077-.097-.111-.143-.061M41.462 4.733c-1.041.43-1.967 1.05-2.985 1.537-1.095.522-2.254.927-3.406 1.295-1.13.36-2.295.617-3.464.802-.554.087-1.109.158-1.668.208-.533.048-1.034.141-1.334.633-.077.128-.091.34 0 .466.677.929 2.24.455 3.193.308 1.246-.19 2.47-.575 3.647-1.024 1.169-.445 2.264-1.027 3.318-1.706 1.05-.676 2.063-1.347 2.815-2.364.053-.071-.036-.188-.116-.155" transform="translate(0 1) translate(71 27)"/>
        </g>
        <g stroke="#2B478B">
            <path stroke-width="2" d="M29 0L18.458 10.485v2.628c0 2.7-2.27 4.887-5.068 4.887H5.07C2.267 18 0 15.813 0 13.113V8.227C0 5.53 2.268 3.342 5.07 3.342h8.32c1.474 0 2.8.608 3.726 1.576L29 0z" transform="translate(0 1) translate(24 87)"/>
            <path d="M5 10.573c-.236 0-.428.192-.428.427s.192.428.428.428.428-.193.428-.428-.192-.427-.428-.427M5 12c-.551 0-1-.448-1-1 0-.55.449-1 1-1 .551 0 1 .45 1 1 0 .552-.449 1-1 1M9 10.573c-.236 0-.428.192-.428.427s.192.428.428.428.428-.193.428-.428-.192-.427-.428-.427M9 12c-.551 0-1-.448-1-1 0-.55.449-1 1-1 .551 0 1 .45 1 1 0 .552-.449 1-1 1M14 10.573c-.236 0-.427.192-.427.427s.191.428.427.428.428-.193.428-.428-.192-.427-.428-.427M14 12c-.551 0-1-.448-1-1 0-.55.449-1 1-1 .551 0 1 .45 1 1 0 .552-.449 1-1 1" transform="translate(0 1) translate(24 87)"/>
        </g>
        <g transform="translate(0 1) translate(34 10)">
            <ellipse cx="7.5" cy="13" stroke="#2B478B" stroke-width="2" rx="7.5" ry="8"/>
            <text fill="#2B478B" font-family="NanumPen, Nanum Pen Script" font-size="22">
                <tspan x="4.338" y="21">i</tspan>
            </text>
        </g>
        <g fill="#2B478B" fill-rule="nonzero">
            <path d="M11.949 13.254c-.18-.53-.748-.832-1.296-.676l-.696.218c-.737.229-1.538.156-2.234-.187-.716-.364-1.506-.55-2.307-.55-.116 0-.264 0-.422.01.243-.562.39-1.154.443-1.768 0-.03.01-.062.01-.093.032-.385.043-.738.043-1.154h2.676c.58 0 1.054-.468 1.054-1.04 0-.571-.474-1.039-1.054-1.039H5.321c-.063-.416-.147-.832-.242-1.247-.137-.52-.211-1.06-.222-1.59 0-.271.053-.541.148-.801.105-.24.242-.468.432-.655s.421-.343.664-.437c.284-.114.58-.166.885-.166 1.528 0 1.886.842 2.023 1.476.116.561.674.925 1.243.8.57-.114.938-.665.812-1.226C10.642 1.143 9.156 0 6.986 0c-.59 0-1.17.114-1.707.333-.506.208-.97.52-1.36.904l-.01.01c-.369.385-.664.832-.864 1.32 0 .011 0 .011-.01.021-.2.5-.295 1.03-.295 1.56.01.706.105 1.403.284 2.079.063.25.116.54.158.748H1.054C.474 6.975 0 7.443 0 8.015c0 .571.474 1.04 1.054 1.04h2.318c0 .31-.01.633-.032.945.021.02.01.052.01.083-.052.697-.305 1.362-.726 1.923l-.538.728c-.347.468-.242 1.112.222 1.455.21.156.484.229.748.198l2.002-.24h.01c.116-.01.232-.02.348-.02.474 0 .927.114 1.349.322.716.364 1.496.551 2.297.551.505 0 1.011-.073 1.506-.218l.706-.219c.548-.176.854-.769.675-1.31z" transform="translate(0 1) translate(146 31)"/>
        </g>
    </g>
</svg>
