<svg xmlns="http://www.w3.org/2000/svg" xmlns:xlink="http://www.w3.org/1999/xlink" width="188" height="155" viewBox="0 0 188 155">
    <defs>
        <path id="kript2gvaa" d="M.023 10.344c0 5.651 4.58 10.232 10.232 10.232 5.65 0 10.232-4.58 10.232-10.232 0-5.651-4.581-10.232-10.232-10.232C4.604.112.023 4.693.023 10.344"/>
        <path id="7f37q1shsd" d="M.081 10.344c0 5.651 4.581 10.232 10.232 10.232 5.651 0 10.233-4.58 10.233-10.232 0-5.651-4.582-10.232-10.233-10.232C4.663.112.081 4.693.081 10.344"/>
        <path id="7aydvchu2g" d="M0.081 0.112L41.951 0.112 41.951 30.824 0.081 30.824z"/>
        <linearGradient id="tbiezignsb" x1="50%" x2="50%" y1="-7.876%" y2="89.605%">
            <stop offset="0%" stop-color="#345EB3"/>
            <stop offset="100%" stop-color="#72CAEF"/>
        </linearGradient>
        <linearGradient id="dg2hdma5pe" x1="50%" x2="50%" y1="-7.876%" y2="89.605%">
            <stop offset="0%" stop-color="#345EB3"/>
            <stop offset="100%" stop-color="#72CAEF"/>
        </linearGradient>
    </defs>
    <g fill="none" fill-rule="evenodd">
        <path fill="#F2F8FE" d="M178.164 29c4.573 0 8.295 3.647 8.43 8.176l.003.253c0 4.655-3.781 8.428-8.433 8.428H166.94c4.572 0 8.295 3.647 8.428 8.176l.004.253c0 4.655-3.776 8.428-8.432 8.428h-7.408c-4.66 0-8.432 3.774-8.432 8.429 0 4.645 3.775 8.428 8.432 8.428h20.03c4.575 0 8.3 3.647 8.433 8.176L188 88c0 4.655-3.777 8.429-8.436 8.429l-19.344-.001.001.076c-.29-.039-.584-.063-.882-.072l-.253-.003h-21.02c-4.66 0-8.43 3.773-8.43 8.428 0 4.646 3.774 8.429 8.43 8.429h21.02c.385 0 .764-.026 1.135-.076l-.001.075h6.156c4.574 0 8.298 3.647 8.432 8.177l.004.252c0 4.655-3.777 8.429-8.436 8.429h-16.83c4.571 0 8.293 3.647 8.426 8.176l.004.252c0 4.655-3.776 8.429-8.43 8.429H21.057c-4.655 0-8.43-3.783-8.43-8.429 0-4.655 3.777-8.428 8.43-8.428h5.058c-4.66 0-8.436-3.783-8.436-8.429 0-4.655 3.776-8.428 8.436-8.428H8.436c-4.659 0-8.436-3.783-8.436-8.429 0-4.655 3.777-8.428 8.436-8.428h26.07c4.643 0 8.425-3.774 8.425-8.429l-.003-.253c-.134-4.529-3.853-8.176-8.422-8.176h-4.464c-4.659 0-8.436-3.783-8.436-8.428 0-4.655 3.777-8.429 8.436-8.429H16.293c-4.66 0-8.436-3.783-8.436-8.428 0-4.655 3.776-8.429 8.436-8.429h14.378c-4.658 0-8.434-3.783-8.434-8.428 0-4.655 3.781-8.429 8.434-8.429h147.493z" opacity=".883" transform="translate(0 1)"/>
        <g>
            <path fill="#152747" d="M21 116L76 116 60.297 110zM76 116L131 116 91.703 110z" transform="translate(0 1) translate(36 38)"/>
            <path fill="#FFE9DC" d="M60 88L60 110 64.851 116 87.149 116 92 110 92 88z" transform="translate(0 1) translate(36 38)"/>
            <path fill="#F1C27D" d="M60.165 103.889c16.041 5.347 27.913-3.185 32.083-6.88v-9.6H60.165v16.48z" transform="translate(0 1) translate(36 38)"/>
            <path fill="#0F1B33" d="M47.074 52.405c1.847 5.735 6.078 10.885 11.767 12.863 2.156.75 4.648 1.003 6.643-.108 2.356-1.313 3.383-4.11 4.205-6.68 1.631-5.103 3.188-10.627 1.538-15.724-1.62-5.009-6.096-8.62-10.886-10.8-2.185-.994-4.556-1.764-6.949-1.567-9.846.812-8.397 15.556-6.318 22.016" transform="translate(0 1) translate(36 38)"/>
            <path fill="#FFE9DC" d="M52.959 37.478v39.755c0 12.649 10.25 22.903 22.895 22.903 12.644 0 22.895-10.254 22.895-22.903V37.478h-45.79z" transform="translate(0 1) translate(36 38)"/>
            <path fill="#F1C27D" d="M73.89 100.05l5.582-18.116H74.25c-3.036 0-5.218-2.92-4.36-5.832l2.773-9.41-11.284-2.668-8.42 5.587v7.622c0 11.987 9.206 21.822 20.932 22.818" transform="translate(0 1) translate(36 38)"/>
            <path fill="#0F1B33" d="M96.367 38.586C89.8 40.54 83.206 42.5 76.428 43.502c-6.777 1.003-13.793 1.022-20.379-.869-6.585-1.89-12.725-5.816-16.483-11.547-2.334-3.558-4.243-7.638-4.381-11.892C34.738 5.47 45.065.603 50.332.134c7.76-.69 15.589 1.265 21.672 6.133 3.817 3.054 6.855 7.053 8.845 11.517 2.07 4.646 6.473 7.798 11.536 8.266.13.012.258.024.385.038 3.065.319 6.137 1.282 8.515 3.242 2.322 1.914 3.843 4.67 4.686 7.56.843 2.888 1.05 5.924 1.096 8.933.118 7.774-.813 15.563-2.76 23.09-2.942 1.664-6.99-.175-8.993-2.898-2.003-2.723-2.496-6.253-2.687-9.628-.347-6.143.67-12.47 3.74-17.8" transform="translate(0 1) translate(36 38)"/>
            <path fill="#FFE9DC" d="M81.058 50.688l8.524-4.65c3.154-1.793 6.934-2.118 10.347-.89l11.282 4.06c3.3 1.187 5.945 3.713 7.283 6.956l12.018 29.125-16.976 7.935-4.19-8.886c-1.666-3.532-5.055-5.937-8.937-6.345l-7.029-.738c-4.506-.474-8.556-2.962-11.014-6.77l-4.084-6.322 2.776-13.475zM70.65 50.688l-8.525-4.65c-3.154-1.793-6.933-2.118-10.347-.89l-11.282 4.06c-3.3 1.187-5.945 3.713-7.282 6.956L21.195 85.289l16.976 7.935 4.191-8.886c1.666-3.532 5.054-5.937 8.937-6.345l7.028-.738c4.506-.474 8.556-2.962 11.015-6.77l4.083-6.322-2.775-13.475z" transform="translate(0 1) translate(36 38)"/>
            <path fill="#F1C27D" d="M113.536 93.224L130.512 85.289 127.1 77.02 111.532 88.974zM38.171 93.224L21.195 85.289 24.607 77.02 40.176 88.974z" transform="translate(0 1) translate(36 38)"/>
            <path fill="#0F1B33" d="M85.1 53.253c-.996-1.987-9.246-1.841-9.246-1.841s-8.25-.146-9.247 1.841c-.996 1.987.028 13.857 4.815 15.554.616-.73 1.168-1.31 1.654-1.77 1.572-1.488 3.983-1.488 5.555 0 .487.46 1.038 1.04 1.655 1.77 4.786-1.697 5.81-13.567 4.814-15.554" transform="translate(0 1) translate(36 38)"/>
            <path fill="#0F1B33" d="M62.921 54.451L89.492 54.451 89.492 49.34 62.921 49.34zM43.386 64.948c9.913 9.208 18.97 8.063 18.97 8.063v-24.6s-9.057-1.144-18.97 8.064c-2.457 2.283-2.457 6.19 0 8.473" transform="translate(0 1) translate(36 38)"/>
            <path fill="#3CBAF0" d="M45.75 58.948c-.972 0-1.762.79-1.762 1.764 0 .973.79 1.763 1.763 1.763.973 0 1.763-.79 1.763-1.763 0-.974-.79-1.764-1.763-1.764" transform="translate(0 1) translate(36 38)"/>
            <path fill="#0F1B33" d="M109.027 64.948c-9.912 9.208-18.969 8.063-18.969 8.063v-24.6s9.057-1.144 18.969 8.064c2.458 2.283 2.458 6.19 0 8.473" transform="translate(0 1) translate(36 38)"/>
            <path fill="#3CBAF0" d="M106.662 58.948c.974 0 1.763.79 1.763 1.764 0 .973-.79 1.763-1.763 1.763-.973 0-1.762-.79-1.762-1.763 0-.974.789-1.764 1.762-1.764" transform="translate(0 1) translate(36 38)"/>
            <path fill="#152747" d="M74.65 60.712c0 6.793-5.504 12.3-12.295 12.3-6.79 0-12.295-5.507-12.295-12.3 0-6.793 5.504-12.3 12.295-12.3 6.79 0 12.296 5.507 12.296 12.3" transform="translate(0 1) translate(36 38)"/>
            <g transform="translate(0 1) translate(36 38) translate(52 50)">
                <mask id="eylpx9zfgc" fill="#fff">
                    <use xlink:href="#kript2gvaa"/>
                </mask>
                <path fill="url(#tbiezignsb)" d="M.023 10.344c0 5.651 4.58 10.232 10.232 10.232 5.65 0 10.232-4.58 10.232-10.232 0-5.651-4.581-10.232-10.232-10.232C4.604.112.023 4.693.023 10.344" mask="url(#eylpx9zfgc)"/>
            </g>
            <g>
                <g fill="#FFF">
                    <path d="M9.26.12c-.247 0-.492.01-.734.03L.06 8.654c-.02.243-.03.488-.03.736 0 2.073.678 3.986 1.822 5.53L14.764 1.95C13.227.8 11.322.12 9.259.12M17.074 4.459c-.292-.466-.623-.904-.99-1.31L3.045 16.246c.404.369.84.702 1.304.995L17.074 4.46zM18.365 10.904c.035-.216.063-.434.083-.654l-8.333 8.37c.219-.02.436-.048.651-.083l7.599-7.633z" transform="translate(0 1) translate(36 38) translate(53 49) translate(0 2.875)"/>
                </g>
                <path fill="#152747" d="M48.404 12.265c0 6.771-5.465 12.26-12.206 12.26s-12.206-5.489-12.206-12.26c0-6.77 5.465-12.26 12.206-12.26s12.206 5.49 12.206 12.26" transform="translate(0 1) translate(36 38) translate(53 49)"/>
            </g>
            <g transform="translate(0 1) translate(36 38) translate(79 50)">
                <mask id="xiiy48lg7f" fill="#fff">
                    <use xlink:href="#7f37q1shsd"/>
                </mask>
                <path fill="url(#dg2hdma5pe)" d="M.081 10.344c0 5.651 4.581 10.232 10.232 10.232 5.651 0 10.233-4.58 10.233-10.232 0-5.651-4.582-10.232-10.233-10.232C4.663.112.081 4.693.081 10.344" mask="url(#xiiy48lg7f)"/>
            </g>
            <g fill="#FFF">
                <path d="M9.4.12c-.249 0-.496.01-.74.03L.12 8.675c-.02.243-.03.49-.03.738 0 2.077.683 3.995 1.837 5.543L14.953 1.954C13.403.802 11.48.121 9.4.121M17.284 4.47c-.295-.468-.63-.907-1-1.313L3.132 16.284c.407.37.847.704 1.315.998L17.284 4.469zM18.585 10.93c.036-.216.064-.435.085-.656l-8.407 8.391c.221-.02.44-.048.657-.084l7.665-7.651z" transform="translate(0 1) translate(36 38) translate(80.22 51)"/>
            </g>
            <path fill="#FFF" d="M136.217 86.539L112.511 97.357 110.052 91.989 133.759 81.172zM15.705 86.539L39.411 97.357 41.87 91.989 18.164 81.172z" transform="translate(0 1) translate(36 38)"/>
            <g transform="translate(0 1) translate(36 38) translate(109.972 84.33)">
                <mask id="0wha1qzvsh" fill="#fff">
                    <use xlink:href="#7aydvchu2g"/>
                </mask>
                <path fill="#152747" d="M41.951 30.824L27.883 0.112 0.081 12.799 8.337 30.824 33.098 30.824z" mask="url(#0wha1qzvsh)"/>
            </g>
            <path fill="#152747" d="M0 115.154L14.068 84.442 41.87 97.129 33.614 115.154 8.853 115.154z" transform="translate(0 1) translate(36 38)"/>
        </g>
        <path stroke="#6866F8" stroke-dasharray="4" stroke-width="2" d="M24.361 43C20.907 51.293 19 60.393 19 69.938c0 3.357.236 6.66.692 9.89m138.046 3.422c.828-4.31 1.262-8.76 1.262-13.312 0-6.658-.928-13.1-2.661-19.201M142 24C129.162 9.298 110.214 0 89.079 0 73.732 0 59.539 4.903 48 13.217" opacity=".711" transform="translate(0 1)"/>
        <g stroke="#2B478B" stroke-width="2">
            <path d="M0 14L3 10 8 12 10 7 14 10 19 1" transform="translate(0 1) translate(25 89)"/>
            <path d="M15.344 1L19.344 1 20.344 5" transform="translate(0 1) translate(25 89) rotate(-14 17.844 3)"/>
        </g>
        <path fill-rule="nonzero" stroke="#2B478B" stroke-width="2" d="M154.302 36.148l-.428-1.115c-.669-1.733-2.384-2.848-4.283-2.784l-.354-.922c-.29-.755-1.151-1.126-1.925-.829-.773.297-1.166 1.15-.876 1.904l.354.922c-1.454 1.223-1.983 3.2-1.32 4.935l.428 1.115c.39 1.016.417 2.296.083 3.915-.082.4.063.809.378 1.068.315.258.752.327 1.14.178l2.464-.946c.548.92 1.7 1.306 2.725.913 1.024-.393 1.622-1.451 1.414-2.502l2.464-.946c.388-.149.667-.492.728-.895.061-.404-.105-.804-.434-1.046-1.331-.98-2.168-1.95-2.558-2.965h0z" transform="translate(0 1)"/>
        <g stroke="#2B478B" stroke-width="2" transform="translate(0 1) rotate(-35 48.959 -27.902)">
            <circle cx="5.5" cy="5.5" r="5.5"/>
            <path stroke-linecap="round" d="M10 10L16 16"/>
        </g>
    </g>
</svg>
