<svg width="825" height="157" xmlns="http://www.w3.org/2000/svg">
 <style type="text/css">.st0{fill:#FFFFFF;}
	.st1{fill:#4A55A5;}
	.st2{fill:#767586;}</style>

 <g>
  <title>background</title>
  <rect fill="none" id="canvas_background" height="159" width="827" y="-1" x="-1"/>
 </g>
 <g>
  <title>Layer 1</title>
  <g id="svg_1">
   <rect id="svg_2" height="157.3" width="236.5" class="st0" y="0.00001" x="4.99999"/>
   <g id="svg_3">
    <path id="svg_4" d="m286.09999,1.10001c0.1,-0.7 0.5,-0.6 0.9,-0.1l32.6,36.6l32.1,-36.6c0.4,-0.5 0.8,-0.6 0.9,0.1l4,68.7l-17.9,0l-1.6,-29l-17,19.7c-0.3,0.3 -0.6,0.3 -0.9,0l-17.7,-19.8l-1.6,29.1l-17.8,0l4,-68.7z" class="st1"/>
    <path id="svg_5" d="m363.29999,35.80001c0,-20.5 16.9,-34.8 36.5,-34.8c19.6,0 36.5,14.3 36.5,34.8c0,20.5 -16.9,34.9 -36.5,34.9c-19.6,0 -36.5,-14.4 -36.5,-34.9zm54.4,0c0,-10.7 -6.5,-19 -17.9,-19c-11.4,0 -17.9,8.3 -17.9,19c0,10.7 6.5,19.1 17.9,19.1c11.4,0 17.9,-8.4 17.9,-19.1z" class="st1"/>
    <path id="svg_6" d="m498.99999,69.80001l-19.7,0l-9.5,-15.6l-6.8,0l0,15.6l-18.2,0l0,-68l25.8,0c18.3,0 28.6,11.6 28.6,26.7c0,9.8 -4.3,17.6 -12.3,22l12.1,19.3zm-29.3,-30.1c8.2,0 11.2,-4.6 11.2,-11.2c0,-6.6 -3,-11.3 -11.2,-11.3l-6.7,0l0,22.5l6.7,0z" class="st1"/>
    <path id="svg_7" d="m522.09999,17.10001l-18,0l0,-15.3l54.2,0l0,15.3l-18,0l0,52.7l-18.2,0l0,-52.7z" class="st1"/>
    <path id="svg_8" d="m596.39999,46.90001l0,-14l32.1,0c0,0.4 0.1,1.5 0.1,2.9c0,23.2 -13.3,35 -33.4,35c-19.3,0 -35.5,-14.5 -35.5,-35c0,-20.5 16,-34.8 35.2,-34.8c13.1,0 23.5,5.8 28.8,15.3l-14.5,8.8c-2.6,-4.6 -7,-8.3 -14.6,-8.3c-10.8,0 -16.3,8.3 -16.3,19c0,10.7 5.8,19.2 17,19.2c8.3,0 12.1,-3 14.2,-8.1l-13.1,0z" class="st1"/>
    <path id="svg_9" d="m643.39999,69.80001l-17.8,0l33.1,-69.2c0.3,-0.7 0.9,-0.7 1.2,0l33,69.2l-18.8,0l-2.6,-5.8c0.1,0 -25.6,0 -25.6,0l-2.5,5.8zm15.1,-35.2l-6.8,15.8l13.8,0l-7,-15.8z" class="st1"/>
    <path id="svg_10" d="m726.09999,46.90001l0,-14l32.1,0c0,0.4 0.1,1.5 0.1,2.9c0,23.2 -13.3,35 -33.4,35c-19.3,0 -35.5,-14.5 -35.5,-35c0,-20.5 16,-34.8 35.2,-34.8c13.1,0 23.5,5.8 28.8,15.3l-14.5,8.8c-2.6,-4.6 -7,-8.3 -14.6,-8.3c-10.8,0 -16.3,8.3 -16.3,19c0,10.7 5.8,19.2 17,19.2c8.3,0 12.1,-3 14.2,-8.1l-13.1,0z" class="st1"/>
    <path id="svg_11" d="m766.79999,1.80001l47.7,0l0,15.3l-29.5,0l0,15.8l24.6,0l0,14.5l-24.6,0l0,7.1l30.9,0l0,15.3l-49.1,0l0,-68z" class="st1"/>
   </g>
   <g id="svg_12">
    <path id="svg_13" d="m312.59999,157.30001c-19.1,0 -35.4,-14.4 -35.4,-34.9c0,-20.5 16.2,-34.8 34.4,-34.8c14.7,0 23.7,6.2 29.4,14.6l-13.7,9.3c-2.6,-4 -6.8,-8.1 -15.4,-8.1c-10,0 -16.1,8.3 -16.1,19s6.3,19.1 16.7,19.1c8.8,0 13.1,-4 16,-9.4l14,9c-6.7,11.3 -16.1,16.2 -29.9,16.2z" class="st2"/>
    <path id="svg_14" d="m346.19999,122.40001c0,-20.5 16.9,-34.8 36.5,-34.8c19.6,0 36.5,14.3 36.5,34.8c0,20.5 -16.9,34.9 -36.5,34.9c-19.6,0 -36.5,-14.4 -36.5,-34.9zm54.4,0c0,-10.7 -6.5,-19 -17.9,-19c-11.4,0 -17.9,8.3 -17.9,19s6.5,19.1 17.9,19.1c11.4,0 17.9,-8.4 17.9,-19.1z" class="st2"/>
    <path id="svg_15" d="m427.69999,87.20001c0,-0.6 0.4,-0.7 0.9,-0.2l34.9,33.7l34.5,-33.7c0.4,-0.4 0.9,-0.3 0.9,0.2l0,69.2l-18.2,0l0,-31.3l-17.1,16.9c-0.4,0.4 -0.5,0.4 -0.9,0l-16.8,-16.9l0,31.3l-18.2,0l0,-69.2z" class="st2"/>
    <path id="svg_16" d="m528.89999,156.40001l-18.2,0l0,-68l25.8,0c18.3,0 28.6,11.6 28.6,26.7c0,15.1 -10.3,26.6 -28.6,26.6l-7.6,0l0,14.7zm6.7,-30.1c8.2,0 11.2,-4.6 11.2,-11.2c0,-6.6 -3,-11.3 -11.2,-11.3l-6.7,0l0,22.5l6.7,0z" class="st2"/>
    <path id="svg_17" d="m570.19999,122.40001c0,-20.5 16.9,-34.8 36.5,-34.8c19.6,0 36.5,14.3 36.5,34.8c0,20.5 -16.9,34.9 -36.5,34.9c-19.6,0 -36.5,-14.4 -36.5,-34.9zm54.4,0c0,-10.7 -6.5,-19 -17.9,-19c-11.4,0 -17.9,8.3 -17.9,19s6.5,19.1 17.9,19.1c11.4,0 17.9,-8.4 17.9,-19.1z" class="st2"/>
    <path id="svg_18" d="m646.19999,144.80001l13.2,-9.9c3.3,4.1 7.4,7.4 14.2,7.4c5.4,0 8.6,-1.6 8.6,-5.4c0,-2.9 -2.2,-4.3 -6.7,-5.8l-8,-2.7c-9.9,-3.3 -16.9,-9.3 -16.9,-20.5c0,-13.4 11.1,-20.3 23.2,-20.3c12,0 18.6,4.3 22.6,9l-10.4,10.9c-2.8,-2.9 -5.8,-4.9 -11.2,-4.9c-4.4,0 -6.6,2 -6.6,4.7c0,2.6 1.5,3.9 4.8,5l9,3c13.6,4.5 18.2,11 18.2,20.6c0,12.5 -7.8,21.5 -25.8,21.5c-15.3,0 -24,-7 -28.2,-12.6z" class="st2"/>
    <path id="svg_19" d="m708.49999,88.40001l47.7,0l0,15.3l-29.5,0l0,15.8l24.6,0l0,14.5l-24.6,0l0,7.1l30.9,0l0,15.3l-49.1,0l0,-68z" class="st2"/>
    <path id="svg_20" d="m820.59999,156.40001l-19.7,0l-9.5,-15.6l-6.8,0l0,15.6l-18.2,0l0,-68l25.8,0c18.3,0 28.6,11.6 28.6,26.7c0,9.8 -4.3,17.6 -12.3,22l12.1,19.3zm-29.3,-30.1c8.2,0 11.2,-4.6 11.2,-11.2c0,-6.6 -3,-11.3 -11.2,-11.3l-6.7,0l0,22.5l6.7,0z" class="st2"/>
   </g>
   <polygon id="svg_21" points="0,0 0,157.4000244140625 61.5,157.4000244140625 210.79998779296875,18.9000244140625 241.5,50.4000244140625 241.5,0 " class="st1"/>
   <g id="svg_22">
    <rect id="svg_23" height="27.6" width="27.6" class="st1" y="129.80001" x="213.99999"/>
    <rect id="svg_24" height="27.6" width="27.6" class="st1" y="129.80001" x="179.99999"/>
    <rect id="svg_25" height="27.6" width="27.6" class="st1" y="95.90001" x="179.99999"/>
    <rect id="svg_26" height="27.6" width="27.6" class="st1" y="95.90001" x="213.99999"/>
   </g>
  </g>
 </g>
</svg>