<svg xmlns="http://www.w3.org/2000/svg" width="59" height="56" fill="none" viewBox="0 0 59 56">
    <path fill="#9E9EBD" fill-rule="evenodd" d="M23.324 29.689h.365c3.343-.057 6.047-1.233 8.044-3.48 4.393-4.952 3.663-13.441 3.583-14.251-.285-6.082-3.16-8.991-5.534-10.35C28.013.594 25.948.047 23.643 0h-.194c-1.266 0-3.753.205-6.138 1.563-2.396 1.358-5.317 4.267-5.602 10.395-.08.81-.81 9.299 3.582 14.25 1.986 2.248 4.69 3.424 8.033 3.48zm-8.585-17.446c0-.034.012-.068.012-.091.376-8.181 6.184-9.06 8.671-9.06h.137c3.08.069 8.318 1.324 8.672 9.06 0 .034 0 .068.011.091.011.08.81 7.839-2.818 11.923-1.438 1.62-3.355 2.42-5.876 2.442h-.115c-2.51-.023-4.438-.821-5.864-2.442-3.617-4.061-2.841-11.854-2.83-11.923zM46.864 44.049v-.035c0-.09-.012-.182-.012-.285-.068-2.259-.216-7.542-5.168-9.23-.035-.012-.08-.023-.114-.035-5.146-1.312-9.425-4.278-9.47-4.313a1.539 1.539 0 0 0-2.146.377c-.49.696-.32 1.654.377 2.145.194.137 4.735 3.297 10.417 4.758 2.659.947 2.955 3.788 3.035 6.39 0 .102 0 .194.011.285.012 1.027-.057 2.613-.24 3.526-1.848 1.05-9.093 4.678-20.115 4.678-10.976 0-18.267-3.64-20.127-4.69-.183-.913-.262-2.499-.24-3.526 0-.09.012-.182.012-.285.08-2.601.376-5.442 3.035-6.39 5.682-1.46 10.223-4.632 10.417-4.757.696-.491.867-1.45.377-2.145a1.539 1.539 0 0 0-2.145-.377c-.046.034-4.302 3-9.47 4.313-.046.011-.08.023-.115.034-4.952 1.7-5.1 6.983-5.168 9.23 0 .104 0 .195-.012.286v.034c-.011.594-.023 3.64.582 5.17.114.296.32.547.593.718.343.228 8.546 5.454 22.273 5.454 13.726 0 21.93-5.237 22.272-5.454.262-.171.479-.422.593-.719.57-1.518.56-4.564.548-5.157zM43.811 28.677h.236c2.157-.036 3.901-.794 5.19-2.245 2.834-3.194 2.362-8.671 2.31-9.194-.183-3.923-2.038-5.8-3.57-6.676-1.14-.656-2.473-1.009-3.96-1.038H43.892c-.817 0-2.422.132-3.96 1.008-1.546.876-3.43 2.753-3.615 6.706-.051.523-.522 6 2.312 9.194 1.28 1.45 3.025 2.209 5.182 2.245zm-5.538-11.255c0-.022.007-.044.007-.059.243-5.278 3.99-5.845 5.595-5.845h.088c1.987.045 5.366.854 5.594 5.845 0 .023 0 .044.008.06.007.05.523 5.056-1.818 7.692-.928 1.045-2.165 1.56-3.791 1.575h-.074c-1.62-.015-2.864-.53-3.784-1.575-2.333-2.62-1.833-7.649-1.825-7.693z" clip-rule="evenodd"/>
    <path fill="#9E9EBD" fill-rule="evenodd" d="M58.998 37.942v-.022c0-.059-.007-.118-.007-.184-.045-1.458-.14-4.866-3.335-5.955-.022-.008-.052-.015-.074-.022-3.32-.847-6.08-2.76-6.11-2.783a.993.993 0 1 0-1.14 1.627c.125.088 3.054 2.127 6.72 3.07 1.715.61 1.907 2.444 1.958 4.122 0 .066 0 .125.008.184.007.662-.037 1.686-.155 2.275-1.192.677-5.867 3.018-12.978 3.018 1.181 0-.123-6.041-1.322-6.718-.118-.59-2.519-.34-2.504-1.002-1.002-1.001-3.005-.935-3.005-1.001-.5-.5 0-2.564-4.343-.886 2.841.054.713-1.537.838-1.618.45-.316-.402-.018-.719-.467-.316-.45-.835-.85-1.284-.534-1.152.812 3.97-.141.635.705l-.074.022c-3.194 1.097 1.987.496 1.943 1.946 3.505-.67 2.504 1.332 4.24 1.833 0-.83 1.142.501 1.142.501-.008.383 4.743 2.018 5.133 3.004.074.192-3.004 1.503.501 2.212 0 0-.5 2.796-1.173 3.983 8.855 0 14.148-3.379 14.369-3.519.17-.11.309-.272.383-.464.368-.979.36-2.944.353-3.327z" clip-rule="evenodd"/>
</svg>
