<svg xmlns="http://www.w3.org/2000/svg" width="44" height="52" fill="none" viewBox="0 0 44 52">
    <path fill="#9E9EBD" fill-rule="evenodd" d="M21.897 27.873H22.24c3.139-.054 5.677-1.157 7.552-3.268 4.124-4.649 3.438-12.618 3.364-13.379-.268-5.71-2.968-8.44-5.196-9.716C26.3.557 24.361.043 22.197 0h-.182c-1.189 0-3.524.193-5.763 1.468-2.25 1.274-4.992 4.006-5.26 9.758-.075.76-.76 8.73 3.364 13.38 1.864 2.11 4.403 3.213 7.541 3.267zm-8.06-16.38c0-.031.011-.063.011-.085.354-7.68 5.806-8.505 8.141-8.505h.129c2.892.064 7.809 1.243 8.141 8.505 0 .032 0 .065.01.086.012.075.761 7.359-2.645 11.194-1.35 1.521-3.15 2.27-5.517 2.292H22c-2.357-.021-4.167-.771-5.506-2.292-3.396-3.813-2.667-11.13-2.656-11.194zM43.997 41.354v-.032c0-.086-.01-.171-.01-.268-.065-2.12-.204-7.08-4.853-8.666-.032-.01-.075-.021-.107-.032-4.831-1.232-8.849-4.017-8.891-4.049a1.445 1.445 0 0 0-2.014.354c-.46.653-.3 1.553.353 2.013.182.129 4.446 3.096 9.78 4.467 2.496.89 2.775 3.557 2.85 5.999 0 .096 0 .182.01.268.011.964-.053 2.453-.224 3.31-1.736.985-8.538 4.392-18.886 4.392-10.305 0-17.15-3.417-18.896-4.403-.171-.857-.246-2.346-.225-3.31 0-.086.011-.171.011-.268.075-2.442.354-5.11 2.85-5.998 5.334-1.372 9.598-4.35 9.78-4.467.653-.46.814-1.36.353-2.014a1.445 1.445 0 0 0-2.014-.354c-.043.032-4.038 2.818-8.89 4.05-.044.01-.076.02-.108.032C.217 33.974.078 38.933.014 41.044c0 .096 0 .182-.011.267v.032c-.01.557-.022 3.418.546 4.853.107.279.3.514.557.675.322.214 8.024 5.12 20.91 5.12 12.887 0 20.589-4.917 20.91-5.12.246-.16.45-.397.557-.675.535-1.425.525-4.285.514-4.842z" clip-rule="evenodd"/>
</svg>
