<svg xmlns="http://www.w3.org/2000/svg" width="60" height="64" fill="none" viewBox="0 0 60 64">
    <path fill="#9E9EBD" fill-rule="evenodd" d="M2.71 29.474c.745.981 1.941 1.421 3.081 1.252v21.962H4.583a2.444 2.444 0 0 0-2.441 2.44v5.63a2.444 2.444 0 0 0 2.44 2.44h50.845a2.444 2.444 0 0 0 2.441-2.44v-5.63a2.444 2.444 0 0 0-2.44-2.44h-1.21V30.726c.158.024.318.038.48.038 1.015 0 1.987-.48 2.601-1.29l2.05-2.698c1.074-1.416.788-3.493-.626-4.566L33 2.68a4.968 4.968 0 0 0-5.99 0l-9.843 7.474V7.716a2.675 2.675 0 0 0 1.745-2.505V2.67A2.674 2.674 0 0 0 16.242 0h-4.153a.926.926 0 0 0 0 1.852h4.152a.82.82 0 0 1 .82.819v2.54a.82.82 0 0 1-.82.819H6.386a.82.82 0 0 1-.819-.819v-2.54a.82.82 0 0 1 .82-.82h2a.926.926 0 1 0 0-1.851h-2a2.673 2.673 0 0 0-2.671 2.67v2.541c0 1.147.727 2.128 1.744 2.505v11.326L1.287 22.21a3.263 3.263 0 0 0-.625 4.566l2.049 2.698zM15.973 8.013v3.77l-9 6.23v-10h9zm40.205 47.116v5.629a.59.59 0 0 1-.59.589H4.744a.59.59 0 0 1-.59-.59V55.13a.59.59 0 0 1 .59-.59h50.844a.59.59 0 0 1 .59.59zM2.039 23.492l26.099-19.53a3.194 3.194 0 0 1 3.805 0l26.099 19.53c.62.464.744 1.36.273 1.971l-2.078 2.699c-.47.61-1.382.733-2 .27l-4.752-3.555a.95.95 0 0 0-1.316.177.917.917 0 0 0 .18 1.297l4.38 3.277v22.867H7.35V29.629l22.69-16.979 15.29 11.442c.463.347 1.163.178 1.415-.338a.918.918 0 0 0-.28-1.137L30.608 10.751a.95.95 0 0 0-1.136 0L5.844 28.43a1.444 1.444 0 0 1-2-.27l-2.079-2.698a1.395 1.395 0 0 1 .274-1.972z" clip-rule="evenodd"/>
    <path fill="#9E9EBD" d="M27.632 42.643h8.64v2.37h-14.1v-2.37h2.58v-7.32h-2.58v-1.62h2.58v-3.3c0-2.08.53-3.68 1.59-4.8 1.06-1.14 2.57-1.71 4.53-1.71 1.12 0 2.17.24 3.15.72 1 .48 1.87 1.16 2.61 2.04l-1.17 2.22c-.62-.78-1.3-1.37-2.04-1.77-.74-.4-1.5-.6-2.28-.6-1.14 0-2.01.34-2.61 1.02-.6.66-.9 1.64-.9 2.94v3.24h5.37v1.62h-5.37v7.32z"/>
</svg>
