<svg xmlns="http://www.w3.org/2000/svg" width="60" height="56" fill="none" viewBox="0 0 60 56">
    <path fill="#9E9EBD" fill-rule="evenodd" d="M59.546 25.286l-12.39-10.783a.854.854 0 0 0-1.12 1.288L57.64 25.89h-5.261L30.859 7.16a1.313 1.313 0 0 0-1.718 0L7.621 25.89h-5.26l8.011-6.973 7.557-6.577L30 1.835l12.958 11.277a.853.853 0 1 0 1.12-1.287L30.858.32a1.313 1.313 0 0 0-1.717 0l-9.35 8.138V6.042c0-.736-.6-1.336-1.336-1.336H8.425c-.737 0-1.336.6-1.336 1.336v2.513c0 .736.6 1.335 1.336 1.335h.533v7.995l-8.504 7.4a1.307 1.307 0 0 0-.369 1.456c.195.52.68.856 1.234.856h5.766v15.165a.854.854 0 1 0 1.707 0V27.134L30 8.677l21.208 18.457v26.222c0 .247-.201.448-.448.448H38.044V32.252a2.06 2.06 0 0 0-2.057-2.057H25.074a2.06 2.06 0 0 0-2.057 2.057v21.552H9.24a.448.448 0 0 1-.448-.448v-6.482a.854.854 0 1 0-1.707 0v6.482c0 1.188.967 2.155 2.155 2.155h41.52a2.157 2.157 0 0 0 2.155-2.155v-25.76h5.766c.555 0 1.04-.335 1.234-.855.194-.52.05-1.09-.37-1.455zM16.43 10.988l-5.85 5.091V9.571h5.85v1.417zM8.71 7.864v-1.77h9.288v1.77H8.711zm27.542 45.62H24.64V31.932a.35.35 0 0 1 .35-.35h10.913a.35.35 0 0 1 .35.35v21.552z" clip-rule="evenodd"/>
</svg>
