<svg xmlns="http://www.w3.org/2000/svg" width="153" height="129" fill="none" viewBox="0 0 153 129">
    <path fill="#FF5059" fill-rule="evenodd" d="M76.494 0l9.493 7.417L153 59.833l-7.219 9.19-69.287-54.19-69.283 54.19L0 59.833 31.126 35.49V6.432h20.968v12.654L67.019 7.417 76.494 0zM48.587 45.268l27.915-22.26 55.791 44.53v55.771a5.533 5.533 0 0 1-5.533 5.533H92.222V76.904H60.776v51.938H26.24a5.533 5.533 0 0 1-5.533-5.533v-55.77l27.88-22.27z" clip-rule="evenodd"/>
    <mask id="a" width="153" height="129" x="0" y="0" maskUnits="userSpaceOnUse">
        <path fill="#fff" fill-rule="evenodd" d="M76.494 0l9.493 7.417L153 59.833l-7.219 9.19-69.287-54.19-69.283 54.19L0 59.833 31.126 35.49V6.432h20.968v12.654L67.019 7.417 76.494 0zM48.587 45.268l27.915-22.26 55.791 44.53v55.771a5.533 5.533 0 0 1-5.533 5.533H92.222V76.904H60.776v51.938H26.24a5.533 5.533 0 0 1-5.533-5.533v-55.77l27.88-22.27z" clip-rule="evenodd"/>
    </mask>
    <g mask="url(#a)">
        <path fill="#000" fill-rule="evenodd" d="M-12.654 77.179h220.226v60.866H-12.654V77.179z" clip-rule="evenodd"/>
    </g>
</svg>
