<svg xmlns="http://www.w3.org/2000/svg" width="62" height="68" fill="none" viewBox="0 0 62 68">
    <path stroke="#9E9EBD" stroke-width="2" d="M18.535 67a5.043 5.043 0 015.042-5.042h9.266a6.498 6.498 0 002.149-.363c.413-.144.812-.33 1.19-.555l22.381-13.266a3.566 3.566 0 001.735-3.298 3.553 3.553 0 00-.563-1.704l-.041-.064a3.662 3.662 0 00-.248-.334l-.078-.09a3.479 3.479 0 00-.214-.222l-.078-.075c-.1-.089-.203-.173-.31-.25l-.05-.032a3.616 3.616 0 00-.675-.363c-.028-.01-.055-.024-.084-.035a3.595 3.595 0 00-.373-.118c-.027-.007-.056-.012-.083-.018a3.584 3.584 0 00-.754-.092c-.023 0-.046-.003-.068-.003-.125 0-.251.008-.376.022-.033.004-.065.01-.097.015a3.429 3.429 0 00-.67.16c-.038.013-.075.025-.113.04a3.638 3.638 0 00-.361.159l-13.918 7.377-.412.219-4.255 2.255a11.325 11.325 0 01-5.186 1.257h-8.098A1.197 1.197 0 0122 51.291c.037-.495.402-.907.874-1.064l9.653-3.217a3.18 3.18 0 002.158-3.346c-.167-1.642-1.626-2.852-3.277-2.852-2.055 0-4.106.199-6.123.593l-18.302 3.58a7.384 7.384 0 00-3.876 2.094A7.394 7.394 0 001 52.25V67h17.535v0zM51.65 27.169h-2.597V39.03L39.675 44c0-.276-.014-.556-.043-.837-.423-4.175-3.958-7.324-8.224-7.324-2.37 0-4.751.231-7.077.686l-12.184 2.383V27.168h-3.24a2.487 2.487 0 01-1.744-4.259L28.71 1.714a2.487 2.487 0 013.502.014l21.196 21.196a2.486 2.486 0 01-1.758 4.244z"/>
</svg>
