<svg xmlns="http://www.w3.org/2000/svg" width="17" height="17" fill="none" viewBox="0 0 17 17">
    <g fill="#6C6C86" clip-path="url(#a)">
        <path d="M8.5 4.467L2.437 9.465a.143.143 0 0 1-.005.031.145.145 0 0 0-.005.032v5.061c0 .183.066.341.2.475.133.133.292.2.474.2h4.05v-4.049H9.85v4.05h4.049a.648.648 0 0 0 .474-.201.648.648 0 0 0 .2-.475V9.528a.148.148 0 0 0-.01-.063L8.5 4.467z"/>
        <path d="M16.883 8.326l-2.31-1.92V2.106a.328.328 0 0 0-.094-.243.328.328 0 0 0-.243-.095h-2.024a.329.329 0 0 0-.243.095.329.329 0 0 0-.095.243V4.16L9.301 2.01a1.23 1.23 0 0 0-.8-.274c-.31 0-.577.091-.802.274L.117 8.326a.306.306 0 0 0-.116.227.341.341 0 0 0 .074.248l.654.78a.36.36 0 0 0 .221.116.392.392 0 0 0 .253-.074L8.5 3.54l7.297 6.084c.056.05.13.074.221.074h.032a.36.36 0 0 0 .221-.116l.654-.78A.341.341 0 0 0 17 8.552a.307.307 0 0 0-.116-.226z"/>
    </g>
    <defs>
        <clipPath id="a"/>
    </defs>
</svg>
