<svg xmlns="http://www.w3.org/2000/svg" width="83" height="65" fill="none" viewBox="0 0 83 65">
    <path fill="#9E9EBD" fill-rule="evenodd" d="M35.324 19.738a8.914 8.914 0 0 0-2.322 2.414 1.012 1.012 0 1 0 1.696 1.106 6.899 6.899 0 0 1 1.797-1.869 1.012 1.012 0 0 0-1.17-1.651z" clip-rule="evenodd"/>
    <path fill="#9E9EBD" fill-rule="evenodd" d="M16.828 62.96h-7.42V16.593c0-.017.003-.033.003-.05 0-8.004 6.176-14.517 13.766-14.517 7.298 0 13.284 6.02 13.736 13.598a8.932 8.932 0 0 0-7.877 8.856v1.582c0 .559.453 1.012 1.012 1.012h4.505c.447 1.62 1.894 2.816 3.588 2.816 1.695 0 3.141-1.196 3.588-2.816h4.135c.559 0 1.012-.453 1.012-1.012v-1.582a8.932 8.932 0 0 0-7.933-8.864C38.483 6.923 31.588 0 23.178 0 14.499 0 7.435 7.372 7.388 16.452c-.002.023-.004.047-.004.07V62.96H1.012a1.012 1.012 0 1 0 0 2.025h15.816a1.012 1.012 0 1 0 0-2.025zM38.14 28.075c-.57-.011-1.096-.388-1.397-1h2.794c-.3.612-.827.989-1.397 1zm6.71-3.595v.57h-13.79v-.57a6.896 6.896 0 0 1 13.79 0z" clip-rule="evenodd"/>
    <path fill="#9E9EBD" fill-rule="evenodd" d="M78.22 47.321v-6.697a4.266 4.266 0 0 0-4.294-4.228H55.404a4.254 4.254 0 0 0-3.274 1.514 4.312 4.312 0 0 0-3.288-1.513H30.214a4.266 4.266 0 0 0-4.294 4.227v6.717a4.894 4.894 0 0 0-4.462 4.834v11.798c0 .56.453 1.013 1.012 1.013h7.848c.558 0 1.012-.454 1.012-1.013v-1.348l41.798.013v1.335c0 .56.453 1.013 1.012 1.013h7.848c.559 0 1.012-.454 1.012-1.013V52.175a4.899 4.899 0 0 0-4.78-4.854zM53.8 39.078a2.244 2.244 0 0 1 1.603-.658h18.522a2.24 2.24 0 0 1 2.27 2.203v7.057a4.865 4.865 0 0 0-3.068 4.494v.397l-19.988-.005.003-11.841a2.297 2.297 0 0 1 .658-1.647zm-23.587-.658h18.627a2.24 2.24 0 0 1 2.27 2.204l.004 11.941-19.785-.005v-.385a4.873 4.873 0 0 0-3.385-4.61v-6.94a2.24 2.24 0 0 1 2.269-2.205zm-.909 24.54h-5.823V52.174a2.913 2.913 0 0 1 5.823 0V62.96zm2.025-2.36v-6.016l20.797.005h.001l21 .006v6.018l-41.798-.014zm49.646 2.36h-5.823V52.175a2.913 2.913 0 0 1 5.823 0v10.787z" clip-rule="evenodd"/>
</svg>
