<svg xmlns="http://www.w3.org/2000/svg" width="505" height="386" fill="none" viewBox="0 0 505 386">
    <g stroke="#DFDFEF" stroke-width="9.057" opacity=".794">
        <path d="M98.063 146.054l14.597-14.379 9.418 8.476 17.23-16.068M168.182 282.658L185.883 293l-5.77 11.269 20.019 12.443"/>
        <path d="M100.829 233.291l5.434-19.732 12.405 2.643 6.867-22.509M173.461 199.157l.129-20.463 12.668-.65.793-23.514" opacity=".116"/>
        <path d="M260.123 200.492l14.596-14.379 9.418 8.476 17.23-16.068"/>
        <path d="M188.989 10.948l19.781 5.42-2.649 12.374 22.565 6.85" opacity=".116"/>
        <path d="M295.288 291.373l14.596-14.378 9.419 8.475 17.23-16.067M387.653 348.095l17.702 10.342-5.77 11.269 20.018 12.443M444.365 229.232l5.434-19.733 12.405 2.643 6.867-22.508M390.13 333.089l.128-20.463 12.668-.65.794-23.515M460.439 298.467l14.596-14.379 9.419 8.476 17.23-16.067M344.89 211.765l19.782 5.419-2.65 12.374 22.565 6.851M437.135 128.216l14.596-14.378 9.419 8.475 17.23-16.067M323.971 3.915l17.701 10.343-5.769 11.268 20.018 12.443M439.9 65.446l5.434-19.732 12.405 2.643 6.868-22.509M378.413 104.601l.129-20.462 12.668-.65.793-23.515M297.115 103.502l14.597-14.38 9.418 8.477 17.23-16.068M358.957 149.645l19.782 5.42-2.649 12.374 22.564 6.851M233.519 265.404l14.596-14.378 9.419 8.475 17.23-16.067M173.247 72.885l17.702 10.342-5.77 11.269 20.018 12.443M225.516 154.24l5.433-19.732 12.405 2.643 6.868-22.509M185.851 234.976l.129-20.463 12.668-.65.793-23.514M104.554 233.876l14.596-14.379 9.418 8.476 17.23-16.067M75.161 286.353l19.782 5.42-2.65 12.374 22.565 6.851M1.198 196.161l19.782 5.42-2.65 12.374 22.565 6.85"/>
    </g>
</svg>
