<svg xmlns="http://www.w3.org/2000/svg" width="61" height="66" fill="none" viewBox="0 0 61 66">
    <path fill="#9E9EBD" fill-rule="evenodd" d="M2.257 8.63a3.28 3.28 0 0 0 2.519-.178l.973-.488 14.21 43.65c.263.79.812 1.451 1.54 1.854a7.699 7.699 0 1 0 9.311-2.114l27.481-9.75a3.3 3.3 0 1 0-2.2-6.22l-2.924 1.038-6.963-19.825a1.1 1.1 0 0 0-1.402-.673L41.448 17.1 36.887 4.105a1.1 1.1 0 0 0-1.403-.673L29.916 5.39l-4.18 1.466-5.564 1.953a1.1 1.1 0 0 0-.673 1.402l4.57 12.996-2.097.735a1.1 1.1 0 0 0-.673 1.401l6.99 19.907-3.103 1.1-14.35-44.072A3.3 3.3 0 0 0 6.225.348l-4.4 2.2a3.3 3.3 0 0 0 .433 6.082zm33.926 12.392l1.87 5.324-1.85-.473a1.1 1.1 0 0 0-1.152.404l-1.149 1.526-1.87-5.324 2.077-.73 2.074-.727zm-5.672-10.864l-.586-.149a1.1 1.1 0 0 0-1.151.404l-.362.482-.908-2.588 1.049-.369L29.6 7.57l.91 2.588zm-5.083-1.123l1.59 4.527a1.1 1.1 0 0 0 1.916.296l1.157-1.54 1.87.476a1.1 1.1 0 0 0 1.31-1.43l-1.595-4.523 3.491-1.225 4.155 11.836-13.23 4.645-4.155-11.837 3.491-1.225zm4.528 14.172l2.55 7.264a1.1 1.1 0 0 0 1.917.297l1.944-2.582 3.13.8a1.1 1.1 0 0 0 1.311-1.43l-2.55-7.258 6.227-2.186 6.557 18.674-20.755 7.281-6.557-18.675 6.226-2.185zm-2.107 29.33a5.572 5.572 0 1 1-2.49.623l1.466-.52a5.5 5.5 0 0 1 1.024-.104zM2.917 4.344l4.4-2.2a1.1 1.1 0 0 1 1.54.643l14.696 45.145a1.1 1.1 0 0 0 1.413.697l31.968-11.344a1.1 1.1 0 0 1 .732 2.073l-31.62 11.218a7.62 7.62 0 0 0-1.926.684l-.55.195a1.1 1.1 0 0 1-1.414-.696L7.554 5.899a1.1 1.1 0 0 0-1.049-.76 1.1 1.1 0 0 0-.492.11L3.902 6.32a1.102 1.102 0 0 1-.99-1.969l.005-.005z" clip-rule="evenodd"/>
    <path fill="#9E9EBD" fill-rule="evenodd" d="M24.189 58.035a3.3 3.3 0 1 0 6.599 0 3.3 3.3 0 0 0-6.6 0zm3.3-1.1a1.1 1.1 0 1 1 0 2.2 1.1 1.1 0 0 1 0-2.2z" clip-rule="evenodd"/>
</svg>
