<svg xmlns="http://www.w3.org/2000/svg" width="28" height="28" fill="none" viewBox="0 0 28 28">
    <g filter="url(#filter0_d)">
        <circle cx="14" cy="10" r="10" fill="#605EF6"/>
    </g>
    <path fill="#fff" d="M13.071 5.872l-.002.002c-.167-.153-.387-.249-.632-.249-.517 0-.937.42-.937.938 0 .273.119.517.306.688l-.002.003L14.8 10l-2.996 2.747.002.002c-.187.171-.306.415-.306.688 0 .518.42.938.938.938.244 0 .464-.096.631-.249l.002.003 3.75-3.438c.193-.178.304-.428.304-.691 0-.263-.11-.513-.304-.691l-3.75-3.437zM14 0C8.478 0 4 4.478 4 10c0 5.523 4.478 10 10 10 5.523 0 10-4.477 10-10 0-5.522-4.477-10-10-10zm0 18.125c-4.48 0-8.125-3.645-8.125-8.125S9.52 1.875 14 1.875 22.125 5.52 22.125 10 18.48 18.125 14 18.125z"/>
    <defs>
        <filter id="filter0_d" width="28" height="28" x="0" y="0" color-interpolation-filters="sRGB" filterUnits="userSpaceOnUse">
            <feFlood flood-opacity="0" result="BackgroundImageFix"/>
            <feColorMatrix in="SourceAlpha" values="0 0 0 0 0 0 0 0 0 0 0 0 0 0 0 0 0 0 127 0"/>
            <feOffset dy="4"/>
            <feGaussianBlur stdDeviation="2"/>
            <feColorMatrix values="0 0 0 0 0 0 0 0 0 0 0 0 0 0 0 0 0 0 0.13 0"/>
            <feBlend in2="BackgroundImageFix" result="effect1_dropShadow"/>
            <feBlend in="SourceGraphic" in2="effect1_dropShadow" result="shape"/>
        </filter>
    </defs>
</svg>
