<svg xmlns="http://www.w3.org/2000/svg" width="80" height="80" fill="none" viewBox="0 0 80 80">
    <circle cx="40" cy="40" r="40" fill="url(#paint0_linear)"/>
    <rect width="69" height="69" x="6" y="7" fill="#fff" rx="34.5"/>
    <g clip-path="url(#clip0)">
        <path fill="#EBEBEB" d="M35.888 66.325c3.97 1.917 10.448 1.917 14.419 0 3.97-1.917 3.97-5.002 0-6.889-3.97-1.917-10.449-1.917-14.42 0-3.97 1.917-3.97 5.002 0 6.889z"/>
        <path fill="#FFA8A7" d="M48.277 60.035h-1.672v2.456h1.672v-2.456zM42.383 56.981l-1.671.058.084 2.455 1.67-.058-.083-2.455z"/>
        <path fill="#37474F" d="M48.187 36.044c0 1.618.21 12.04.21 12.04.029.45.477 1.319.387 3.086-.12 2.426-.328 9.135-.328 9.135s-.776.779-1.91 0c0 0-1.523-9.135-1.822-11.531-.268-2.097-.716-7.788-.716-7.788l-1.553 6.68s.27 1.557.329 2.695c.06 1.108-.299 7.518-.299 7.518s-.865.599-1.82.06c0 0-1.344-9.375-1.523-10.363-.18-.989 1.194-11.561 1.194-11.561h7.851v.03z"/>
        <path fill="#FFA8A7" d="M42.067 24.813c-.686.09-1.224.45-2.239 2.156-.806 1.378-2.478 3.984-2.478 3.984-.149-.12-3.85-2.276-4.687-3.295-.208-.39-.358-.748-.626-1.108-.329-.42-.627-.809-.986-1.198l-.09-.09c-.118-.06-.298.03-.327.18-.03.15 0 .27.06.42.059.179.238.419 0 .478-.21.03-.449-.06-.628-.15-.328-.15-.627-.299-.955-.449-.209-.12-.418-.21-.627-.24-.328 0-.627.24-.746.57-.12.3-.03.659.12.958.148.3.417.54.656.72.567.448 1.313.628 2 .838.329.09.567.18.955.449.538.39 3.434 3.055 4.747 4.103.627.51 1.523.779 2.269.06.716-.719 3.612-4.612 3.612-4.612l1.821-3.624c.06 0-1.164-.24-1.85-.15z"/>
        <path fill="#49D586" d="M41.858 24.843c-.477.18-1.373.838-2.597 2.815-1.224 1.977-2.06 3.175-2.06 3.175l-3.94-2.815s-.836.539-1.254 1.617c0 0 4.21 3.654 4.537 3.924.717.569 1.105.689 1.762.15.657-.54 2.776-3.745 2.776-3.745l.776-5.121z"/>
        <path fill="#fff" d="M45.65 24.903s.03 0 0 0c1.492.36 2.537 1.737 2.537 3.264V36.075c-1.164 1.287-5.284 1.886-7.851 0v-8.237c0-1.318.716-2.905 2.746-2.995l2.568.06z"/>
        <path fill="#263238" d="M46.217 18.164s.418-.06.746.27c.329.329.239.928 0 2.306l-.985.12.239-2.696zM40.485 17.774s-.388 0-.627-.12c-.298-.18-.388.18-.209.48.18.3.478.689 1.135.749 0-.03.268-.78.268-.78l-.567-.329z"/>
        <path fill="#FFA8A7" d="M45.77 20.86c.148.09.357-.18.536-.39.18-.18.777-.45 1.075.18.299.629-.388 1.467-.776 1.737-.478.33-.806.06-.806.06l-.09 2.426s-.477.898-1.91 1.108c-.806.12-1.164-.599-.687-1.198v-.869s-.716.15-1.075.06c-.179-.06-.627-.569-.895-1.168-.329-.659-.836-1.857-.388-3.864.507-2.156 2.836-2.216 4.209-1.347 1.314.868.806 3.264.806 3.264z"/>
        <path fill="#263238" d="M45.77 21.099c.059 0 .357-.45.536-.629.24-.24-.06-2.306-.06-2.306s.27-.779-.238-1.318c-.508-.51-1.463-.45-2.18-.45-.746-.03-1.522-.06-2.537-.509s-1.075-.479-1.194-.06c-.12.45-.18 1.468.418 2.127l.507.18s.27.24 1.195.36c.925.119 2.388-.03 2.597-.06.269-.03.328.239.477.958.12.629.21 1.707.478 1.707z"/>
        <path fill="#263238" d="M46.217 18.314l.895-.48c-.119-.24-.418-.36-.656-.21-.269.15-.359.45-.24.69z"/>
        <path fill="#F28F8F" d="M43.052 23.944s1.314-.27 1.762-.509c.298-.15.567-.45.627-.629 0 0-.09.39-.358.749-.329.42-2.03.749-2.03.749v-.36z"/>
        <path fill="#263238" d="M43.38 20.53c0 .15.12.27.27.27.149 0 .268-.12.268-.27 0-.15-.12-.27-.268-.27-.15 0-.27.12-.27.27zM43.65 19.541l.567.3c.09-.15.03-.36-.12-.45-.179-.09-.358-.03-.447.15z"/>
        <path fill="#F28F8F" d="M43.38 22.327l-.596.24c.06.18.239.27.418.21.149-.09.239-.3.179-.45z"/>
        <path fill="#263238" d="M41.022 19.751l.508-.39c-.09-.149-.299-.179-.448-.06-.12.09-.15.3-.06.45zM41.202 20.47c0 .15.119.27.268.27.15 0 .269-.12.269-.27 0-.15-.12-.27-.269-.27-.179-.03-.268.12-.268.27z"/>
        <path fill="#F28F8F" d="M42.515 20.2l-.09 1.588-.805-.27.895-1.318z"/>
        <path fill="#263238" d="M46.605 61.653v-.24c-.15.06-.537 1.498-1.194 2.127-.538.479-1.254 1.048-1.433 1.587-.18.569 1.015.869 1.493.779.567-.09 1.582-.51 1.82-.899.24-.39.359-.928.568-1.198.209-.27.686-.599.776-.898.06-.18 0-.57-.09-.899-.09-.3-.149-.629-.268-.599v.18c-.12.15-.448.27-.836.3-.239 0-.836-.06-.836-.24zM40.754 58.987c-.09 0-.15.12-.358.33-.24.24-.627.539-.986.718-.627.33-1.85.809-2.418 1.049-.358.15-.328.569.03.808.358.24 1.224.42 2.269.18.567-.12 1.314-.659 1.761-.629.478.03 1.344.03 1.672-.21.358-.24.209-.748.12-1.168-.12-.479-.27-1.198-.419-1.168v.15c-.208.3-1.223.42-1.671.21v-.27zM44.008 41.016s-.985-.419-1.94-1.078c0 0 .686.869 1.492 1.258l-.806 5.212 1.254-5.392z"/>
        <path fill="#49D586" d="M43.052 24.813s-.925.719-1.164 1.827c-.239 1.078-.298 13.178-.298 13.178s-1.284-.24-1.881-.718V28.047c0-1.498.358-3.145 3.343-3.415v.18zM45.65 24.843s-1.433.928-1.463 5.122c-.03 3.624-.09 9.973-.09 9.973s2.508.51 4.3-.569c0 0-.21-9.075-.24-10.453-.03-1.557.418-2.875-.447-3.324-.866-.42-2.06-.75-2.06-.75z"/>
        <path fill="#FFA8A7" d="M50.665 39.728l-1.731-.299v.749c0 .21-.299.569-.418.719-.389.389-.478.718-.747 1.168-.209.33-.418.479-.358.539.06.09.299.24.597.06.15-.09.328-.27.537-.51 0 0-.06.6-.388 1.288-.447.929-.358 1.408.926 1.109.806-.18 1.313-.839 1.492-2.726.06-.539.15-1.378.09-2.097z"/>
        <path fill="#49D586" d="M46.874 25.262s1.044.39 1.522.749c.388.3 2.597 6.65 2.657 7.218.09.57-.239 6.59-.239 6.59s-.836.628-2 .12l-.358-6.021-1.762-4.553c.03 0-.835-2.485.18-4.103z"/>
        <path fill="#37474F" d="M46.068 27.15l-.777.958.389 1.108-1.016 2.635 1.224-2.635-.417-1.049.597-1.018zM40.903 26.61l.15 1.018-.657.869.925 2.995-.716-2.965.626-.809-.328-1.108z"/>
    </g>
    <defs>
        <linearGradient id="paint0_linear" x1="0" x2="86" y1="21" y2="61" gradientUnits="userSpaceOnUse">
            <stop stop-color="#6563F7"/>
            <stop offset="1" stop-color="#6B69FA"/>
        </linearGradient>
        <clipPath id="clip0">
            <path fill="#fff" d="M0 0H25.584V52.235H0z" transform="translate(27.708 15.528)"/>
        </clipPath>
    </defs>
</svg>
