<svg xmlns="http://www.w3.org/2000/svg" width="20" height="20" fill="none" viewBox="0 0 20 20">
    <path fill="#49D586" d="M19.583 9.583c.234 0 .417.184.417.417 0 .233-.183.417-.417.417h-.416v-.834h.416z"/>
    <path fill="#49D586" d="M10.417 9.583h8.75v.834h-8.75v-.834z"/>
    <path fill="#49D586" d="M17.917 20H10c.233 0 .417-.183.417-.417v-.416h7.5c.691 0 1.25-.559 1.25-1.25v-7.5h.416c.234 0 .417-.184.417-.417v7.917c0 1.15-.933 2.083-2.083 2.083zM20 2.083V10c0-.233-.183-.417-.417-.417h-.416v-7.5c0-.691-.559-1.25-1.25-1.25h-7.5V.417C10.417.183 10.233 0 10 0h7.917C19.067 0 20 .933 20 2.083z"/>
    <path fill="#49D586" d="M16.667 5c.233 0 .416.183.416.417 0 .233-.183.416-.416.416h-3.334c-.233 0-.416-.183-.416-.416 0-.234.183-.417.416-.417h3.334zM16.667 13.333c.233 0 .416.184.416.417 0 .233-.183.417-.416.417h-3.334c-.233 0-.416-.184-.416-.417 0-.233.183-.417.416-.417h3.334zM16.667 15.833c.233 0 .416.184.416.417 0 .233-.183.417-.416.417h-3.334c-.233 0-.416-.184-.416-.417 0-.233.183-.417.416-.417h3.334zM10.417 19.167v.416c0 .234-.184.417-.417.417-.233 0-.417-.183-.417-.417v-.416h.834zM9.583 10.417h.834v8.75h-.834v-8.75zM9.583 9.583h.834v.834h-.834v-.834zM9.583.833h.834v8.75h-.834V.833zM10.417.417v.416h-.834V.417C9.583.183 9.767 0 10 0c.233 0 .417.183.417.417zM.833 9.583h8.75v.834H.833v-.834zM6.667 5c.233 0 .416.183.416.417 0 .233-.183.416-.416.416h-1.25V5h1.25zM6.542 15.958c.166.159.166.425 0 .584-.075.083-.184.125-.292.125-.108 0-.217-.042-.292-.125L5 15.583 5.583 15l.959.958zM5.958 13.458c.159-.166.425-.166.584 0 .166.159.166.425 0 .584L5.583 15 5 14.417l.958-.959zM4.414 15l.584-.584.583.583-.583.583L4.414 15zM5.417 5.833v1.25c0 .234-.184.417-.417.417-.233 0-.417-.183-.417-.417v-1.25h.834zM4.583 5h.834v.833h-.834V5zM5.417 3.75V5h-.834V3.75c0-.233.184-.417.417-.417.233 0 .417.184.417.417z"/>
    <path fill="#49D586" d="M5 14.417L4.417 15l-.959-.958c-.166-.159-.166-.425 0-.584.159-.166.425-.166.584 0l.958.959zM4.583 5v.833h-1.25c-.233 0-.416-.183-.416-.416 0-.234.183-.417.416-.417h1.25zM4.042 16.542c-.075.083-.184.125-.292.125-.108 0-.217-.042-.292-.125-.166-.159-.166-.425 0-.584L4.417 15l.583.583-.958.959zM.833 9.583v.834H.417C.183 10.417 0 10.233 0 10c0-.233.183-.417.417-.417h.416z"/>
    <path fill="#49D586" d="M0 2.083C0 .933.933 0 2.083 0H10c-.233 0-.417.183-.417.417v.416h-7.5c-.691 0-1.25.559-1.25 1.25v7.5H.417C.183 9.583 0 9.767 0 10V2.083zM.833 17.917c0 .691.559 1.25 1.25 1.25h7.5v.416c0 .234.184.417.417.417H2.083C.933 20 0 19.067 0 17.917V10c0 .233.183.417.417.417h.416v7.5z"/>
</svg>
