<svg xmlns="http://www.w3.org/2000/svg" width="80" height="80" fill="none" viewBox="0 0 80 80">
    <circle cx="40" cy="40" r="40" fill="url(#paint0_linear)"/>
    <rect width="69" height="69" x="6" y="7" fill="#fff" rx="34.5"/>
    <path fill="#C6C6C6" d="M63 41.2l-10.33-5.933-.28-.16-.6.32 10.57 6.133v1.924l.64-.36v-1.925z"/>
    <path fill="#C6C6C6" d="M62.36 41.56l-10.57-6.133v1.965l10.57 6.092V41.56z"/>
    <path fill="#3A8899" d="M59.877 33.423l-11.57-6.653c-.28-.16-.68-.12-1.121.12l-4.564 2.645c-.44.24-.8.882-.8 1.403v11.103l11.57 6.694 6.485-15.312z"/>
    <path fill="#2F2E29" d="M61.679 43.885l-2.322-1.483v-2.726l2.322 1.483v2.726z"/>
    <path fill="#2B2B2B" d="M59.797 42.602c0 1.363-.84 2.966-1.922 3.848-.16.12-.32.24-.52.36-.72.442-1.361.442-1.842.081-.36-.28-.6-.802-.6-1.523 0-.762.28-1.643.72-2.405.44-.762 1.041-1.443 1.722-1.804.6-.36 1.161-.4 1.601-.24.52.24.841.801.841 1.683z"/>
    <path fill="#2B2B2B" d="M59.089 41l-3.444 5.97 1.734 1.002 3.443-5.97-1.733-1.003z"/>
    <path fill="#444443" d="M59.077 47.813c.16-.08.36-.2.52-.36 1.121-.923 1.922-2.526 1.922-3.849 0-.841-.32-1.403-.841-1.643-.44-.2-1.001-.12-1.601.24-.681.401-1.282 1.043-1.722 1.804-.44.762-.72 1.643-.72 2.405 0 .722.24 1.243.6 1.523.48.28 1.12.28 1.842-.12zm0-1.042c-.841.48-1.522.08-1.522-.882s.68-2.164 1.522-2.645c.84-.481 1.52-.08 1.52.881.04.962-.64 2.125-1.52 2.646z"/>
    <path fill="#9D9D9C" d="M59.077 46.77c.84-.48 1.52-1.683 1.52-2.645s-.68-1.362-1.52-.881c-.841.48-1.522 1.683-1.522 2.645s.68 1.363 1.522.882zm0-.56c-.601.32-1.041.08-1.041-.602 0-.681.48-1.483 1.04-1.843.601-.321 1.041-.08 1.041.6.04.682-.44 1.484-1.04 1.845z"/>
    <path fill="#EDEDED" d="M58.036 45.608c0-.681.48-1.483 1.04-1.843.601-.321 1.041-.08 1.041.6 0 .682-.48 1.484-1.04 1.845-.561.32-1.041.04-1.041-.602z"/>
    <path fill="#337786" d="M56.314 46.37c0-.32.04-.641.12-.962.28-1.122.921-2.325 1.802-3.086.24-.24.52-.441.8-.602.36-.2.681-.32 1.001-.36 1.001-.12 1.722.6 1.722 1.924v.6l.68-.4v-5.451l-2.161-4.249c-.08-.16-.2-.28-.32-.36-.281-.16-.681-.12-1.122.12l-4.564 2.645c-.44.24-.8.882-.8 1.403v11.103l2.922-1.684v-.641h-.08z"/>
    <path fill="#3E91A3" d="M54.032 47.051c0 .2.24.361.44.24l.841-.48c.2-.12.36-.36.36-.601.04-.321.04-.722.12-.962.28-1.283 1.041-2.566 2.002-3.447.16-.16.36-.321.52-.441.241-.16.361-.441.361-.722v-.681l-4.644 2.685v4.41z"/>
    <path fill="#8FD1CF" d="M59.597 34.907l-.36.2c-.12.08-.2.2-.2.36v4.25l2.682-1.524-1.602-3.166c-.12-.16-.32-.2-.52-.12z"/>
    <path fill="#fff" d="M59.957 35.107c-.04-.04-.08-.08-.16-.08-.04 0-.04 0-.08.04l-.36.2c-.08.04-.12.12-.12.24v1.163c.72.481 1.28 1.122 1.561 1.884l.72-.4-1.56-3.047z" opacity=".5"/>
    <path fill="#8FD1CF" d="M54.032 38.394v4.248l4.604-2.645v-4.129c0-.16-.2-.28-.36-.2l-4.004 2.325c-.12.08-.24.24-.24.4z"/>
    <path fill="#fff" d="M55.794 37.311c1.12.361 1.961 1.523 2.242 2.846l.44-.24v-3.608c-.16-.08-.36-.16-.56-.2l-2.122 1.202zM58.396 35.788s0 .04 0 0l-.48.28c.2.04.36.121.56.201v-.4c0-.04-.04-.08-.08-.08z" opacity=".5"/>
    <path fill="#2F2E29" d="M46.105 53.264l-2.722-1.202-6.927 4.008 3.804-6.774 5.845 2.405v1.563z"/>
    <path fill="#2B2B2B" d="M43.823 51.861c0 1.363-.84 2.966-1.922 3.848-.16.12-.32.24-.52.36-.72.442-1.361.442-1.842.081-.36-.28-.6-.802-.6-1.523 0-.762.28-1.643.72-2.405.44-.762 1.041-1.443 1.722-1.804.6-.36 1.16-.4 1.601-.24.52.28.841.842.841 1.683z"/>
    <path fill="#2B2B2B" d="M43.119 50.301l-3.443 5.97 1.733 1.003 3.443-5.97L43.12 50.3z"/>
    <path fill="#444443" d="M43.142 57.112c.16-.08.36-.2.52-.36 1.122-.923 1.922-2.526 1.922-3.849 0-.841-.32-1.402-.84-1.643-.44-.2-1.001-.12-1.602.24-.68.401-1.28 1.043-1.721 1.804-.44.762-.72 1.644-.72 2.405 0 .722.24 1.243.6 1.523.44.28 1.08.28 1.841-.12zm0-1.042c-.84.48-1.521.08-1.521-.882s.68-2.164 1.521-2.645c.841-.481 1.522-.08 1.522.882 0 .961-.68 2.124-1.522 2.645z"/>
    <path fill="#9D9D9C" d="M43.142 56.07c.841-.481 1.522-1.684 1.522-2.645 0-.962-.68-1.363-1.522-.882-.84.48-1.521 1.683-1.521 2.645-.04.962.64 1.363 1.521.882zm0-.561c-.6.32-1.04.08-1.04-.602 0-.68.48-1.482 1.04-1.843.6-.32 1.041-.08 1.041.601 0 .681-.48 1.483-1.04 1.844z"/>
    <path fill="#EDEDED" d="M42.061 54.907c0-.68.48-1.482 1.041-1.843.6-.32 1.041-.08 1.041.601 0 .681-.48 1.483-1.04 1.844-.561.32-1.042.04-1.042-.602z"/>
    <path fill="#2B2B2B" d="M38.458 54.988c0 1.362-.84 2.966-1.922 3.848-.16.12-.32.24-.52.36-.72.441-1.401.441-1.842.08-.36-.28-.6-.801-.6-1.523 0-.761.28-1.643.72-2.405.44-.761 1.041-1.443 1.722-1.803.6-.361 1.161-.401 1.601-.24.52.28.841.84.841 1.683z"/>
    <path fill="#2B2B2B" d="M37.758 53.41l-3.443 5.97 1.734 1.002 3.443-5.97-1.733-1.003z"/>
    <path fill="#444443" d="M37.737 60.198c.16-.08.36-.2.521-.36 1.121-.922 1.922-2.526 1.922-3.848 0-.842-.32-1.403-.841-1.644-.44-.2-1-.12-1.602.24-.68.402-1.28 1.043-1.721 1.805-.44.761-.72 1.643-.72 2.404 0 .722.24 1.243.6 1.524.48.32 1.12.32 1.841-.12zm0-1.042c-.84.481-1.52.08-1.52-.882s.68-2.164 1.52-2.645c.841-.481 1.522-.08 1.522.882.04.962-.68 2.164-1.522 2.645z"/>
    <path fill="#9D9D9C" d="M37.737 59.156c.841-.48 1.522-1.683 1.522-2.645s-.68-1.363-1.522-.882c-.84.481-1.52 1.683-1.52 2.645 0 1.002.68 1.403 1.52.882zm0-.56c-.6.32-1.04.08-1.04-.602 0-.682.48-1.483 1.04-1.844.601-.32 1.041-.08 1.041.601.04.722-.44 1.523-1.04 1.844z"/>
    <path fill="#EDEDED" d="M36.697 57.994c0-.682.48-1.483 1.04-1.844.601-.32 1.041-.08 1.041.601 0 .682-.48 1.483-1.04 1.844-.561.36-1.041.08-1.041-.601z"/>
    <path fill="#285D69" d="M32.813 56.831v4.129l2.162-1.283c0-1.683 1.201-3.767 2.642-4.61l5.806-3.366c1.44-.842 2.642-.16 2.642 1.523l7.327-4.249v-4.048L32.813 56.831zM20.402 49.697l12.411 7.134V61l-12.41-7.215v-4.088z"/>
    <path fill="#4E687C" d="M32.333 43.003v15.432L18 50.138V34.706l14.333 8.297z"/>
    <path fill="#337786" d="M31.692 43.404v13.868l-13.011-7.535V35.868l11.97 6.935 1.041.6z"/>
    <path fill="#fff" d="M22.044 52.783c-.08-.04-.16 0-.16.08v1.363c0 .12.08.24.16.28l.36.201v-1.764l-.36-.16z"/>
    <path fill="#F66232" d="M24.125 53.946l-1.721-.962v1.763l1.721 1.002c.08.04.16 0 .16-.08v-1.363c0-.16-.08-.28-.16-.36z"/>
    <path fill="#fff" d="M24.206 55.83c-.04 0-.08 0-.12-.04l-2.082-1.203c-.12-.08-.2-.24-.2-.36v-1.364c0-.16.16-.28.32-.16l2.082 1.202c.12.08.2.24.2.361v1.363c-.04.12-.12.2-.2.2zm0-.16v.08-.08zm-2.242-2.847s0 .04 0 0v1.403c0 .08.04.16.12.2l2.082 1.203h.04v-1.403c0-.08-.04-.16-.12-.2l-2.122-1.203z"/>
    <path fill="#F66232" d="M29.09 56.831c-.08-.04-.16 0-.16.08v1.363c0 .12.08.24.16.281l1.641.962v-1.764l-1.641-.922z"/>
    <path fill="#fff" d="M31.172 58.034l-.44-.24v1.763l.44.24c.08.04.16 0 .16-.08v-1.362c0-.16-.08-.281-.16-.321z"/>
    <path fill="#fff" d="M31.252 59.878c-.04 0-.08 0-.12-.04l-2.082-1.203c-.12-.08-.2-.24-.2-.36v-1.363c0-.16.16-.281.32-.16l2.082 1.202c.12.08.2.24.2.36v1.363c-.04.12-.12.2-.2.2zm0-.16v.08-.08zm-2.242-2.806v1.403c0 .08.04.16.12.2l2.082 1.202h.04V58.315c0-.08-.04-.16-.12-.2l-2.122-1.203z"/>
    <path fill="#285D69" d="M60.798 39.396c-.04 0-.08 0-.08-.04-.04-.04-.08-.12 0-.2l.68-.722c.04-.04.12-.08.2 0 .04.04.08.12 0 .2l-.68.722c-.04 0-.08.04-.12.04zM60.998 35.868l.2-.08.08.12-.2.2-.08-.24z"/>
    <path fill="#285D69" d="M61.198 35.788c.04-.04.08 0 .16 0l.841.481c.12.08.2.24.2.361v2.044c0 .08-.04.12-.08.12-.04.04-.08 0-.16 0l-.84-.48c-.12-.08-.2-.241-.2-.361v-2.045c0-.04.04-.12.08-.12z"/>
    <path fill="#285D69" d="M62.16 38.955l.16-.12-.2-.2-.16.12.2.2z"/>
    <path fill="#285D69" d="M60.998 35.868c.04-.04.08 0 .16 0l.841.481c.12.08.2.24.2.361v2.124c0 .08-.04.12-.08.12-.04.04-.08 0-.16 0l-.84-.48c-.12-.08-.2-.24-.2-.361v-2.084c0-.08.04-.12.08-.16z"/>
    <path fill="#8FD1CF" d="M62.08 38.875h-.04l-.842-.481c-.08-.04-.16-.2-.16-.281v-2.084c0-.04 0-.08.04-.08h.04l.841.48c.08.04.16.201.16.281v2.124c0 .04 0 .04-.04.04z"/>
    <path fill="#fff" d="M61.96 36.75c0-.04-.041-.12-.081-.16l-.68-.4v.2c.52.52.56 1.242.44 2.044l.32.2V36.75z" opacity=".5"/>
    <path fill="#49D586" d="M30.651 42.803l-2.162 1.282-1 .561-8.808 5.09V35.869l11.97 6.935z"/>
    <path fill="#2F2E29" d="M24.606 53.024l.52.32c.12.08.2.24.2.361v.4l-.96-.56v-.401c0-.16.12-.2.24-.12z"/>
    <path fill="#3A8899" d="M40.06 22L18 34.706l14.333 8.297 22.1-12.746L40.06 22z"/>
    <path fill="#fff" d="M18.92 34.706l2.043 1.162c-.6-1.282 1.761-3.006 4.363-4.77l-6.405 3.608z" opacity=".15"/>
    <path fill="#D6BE98" d="M25.447 51.38l-4.564-2.605v-4.77l4.564 2.646v4.73z"/>
    <path fill="#3C3C3B" d="M25.046 47.653v-.882l-.8-.481v.882c0 .24.16.48.32.641v.601l-.28-.16v.16l.68.401v-.16l-.28-.16v-.602c.2.08.36-.04.36-.24z" opacity=".5"/>
    <path fill="#C4AE8B" d="M29.97 48.775l-4.523 2.605v-4.73l4.524-2.645v4.77z"/>
    <path fill="#EDD9B9" d="M25.447 41.4l-4.564 2.605 4.564 2.646 4.524-2.646-4.524-2.605z"/>
    <path fill="#E6D7BF" d="M30.691 49.937v3.688l-3.403-1.964v-3.688l3.403 1.964z"/>
    <path fill="#D4C6B0" d="M35.976 46.891v3.688l-5.285 3.046v-3.688l5.285-3.046z"/>
    <path fill="#F1E2C9" d="M32.533 44.927l-5.285 3.046 3.443 1.964 5.285-3.046-3.443-1.964z"/>
    <path fill="#D6C8B2" d="M30.892 47.292v1.844l-2.883-1.684v-1.844l2.883 1.684z"/>
    <path fill="#C4B7A3" d="M35.335 44.727v1.843l-4.444 2.566v-1.844l4.444-2.565z"/>
    <path fill="#E1D3BC" d="M32.453 43.043l-4.444 2.565 2.883 1.684 4.443-2.565-2.882-1.684z"/>
    <path fill="#49D586" d="M54.432 30.257v15.391l-22.1 12.787V43.003l22.1-12.746z"/>
    <path fill="#fff" d="M39.62 44.085l.48-.28c.28-.16.44-.08.44.28v1.082c0 .361-.16.602-.44.762l-.48.28v-2.124zm.28.12v1.524l.16-.08c.08-.04.16-.16.16-.281v-1.122c0-.16-.04-.16-.16-.12l-.16.08zM40.98 44.206l.4-.241v.32l-.4.241v.641l.52-.28v.32l-.8.441v-2.124l.8-.44v.32l-.52.28v.522zM41.661 42.883l.28-.16v1.843l.48-.28v.32l-.76.441v-2.164zM42.542 42.362l.28-.16v2.124l-.28.16v-2.124zM43.503 43.564l.24-1.884.28-.16-.28 2.325-.44.24-.28-1.964.28-.16.2 1.603zM44.423 42.201l.4-.24v.32l-.4.241v.641l.521-.28v.32l-.8.441V41.52l.8-.44v.32l-.52.2v.601zM45.705 42.682c0-.04-.04-.08-.04-.24v-.32c0-.201-.04-.241-.2-.161l-.12.04v.882l-.28.16V40.92l.44-.24c.32-.161.44-.08.44.24v.16c0 .2-.08.4-.2.561.16 0 .2.12.2.361v.32c0 .12 0 .161.04.241l-.28.12zm-.32-1.643v.641l.12-.08c.12-.08.16-.16.16-.32v-.2c0-.161-.04-.201-.16-.121l-.12.08zM46.425 41.6l-.36-1.202.32-.16.24.841.24-1.122.28-.16-.36 1.643v.721l-.36.12v-.68zM47.746 44.406l-8.527 4.93v-1.764l8.527-4.97v1.804z"/>
    <path fill="#fff" d="M47.306 45.528l2.682-3.327-2.682-.24v3.567z"/>
    <path fill="#fff" d="M52.55 31.86l1.482-.761v6.052c0-2.685-.12-5.09-1.481-5.29z" opacity=".15"/>
    <path fill="#285D69" d="M31.692 47.051l-13.011-7.495v-3.688l13.011 7.536v3.647z"/>
    <path fill="#fff" d="M31.692 45.93v1.121l-4.204-2.405-8.807-5.09v-1.122l9.808 5.651 3.203 1.844zM31.692 44.687v1.122l-4.204-2.405-8.807-5.13V37.15l9.808 5.692 3.203 1.843zM31.692 43.404v1.162l-4.204-2.445-8.807-5.09v-1.123l9.808 5.652 3.203 1.844z"/>
    <path fill="#285D69" d="M25.126 43.644l-.52-.32c-.12-.08-.2-.24-.2-.361v-.4l.96.56v.401c-.04.12-.12.16-.24.12z"/>
    <path fill="#4E687C" d="M18 34.706v15.432l14.333 8.297V43.003L18 34.706zm13.692 22.566l-13.011-7.535V35.868l12.01 6.935 1.001.6v13.87z"/>
    <path fill="#3E91A3" d="M18 34.706v15.432l14.333 8.297V43.003L18 34.706zm13.692 22.566l-13.011-7.535V35.868l12.01 6.935 1.001.6v13.87z"/>
    <defs>
        <linearGradient id="paint0_linear" x1="0" x2="86" y1="21" y2="61" gradientUnits="userSpaceOnUse">
            <stop stop-color="#6563F7"/>
            <stop offset="1" stop-color="#6B69FA"/>
        </linearGradient>
    </defs>
</svg>
