<svg xmlns="http://www.w3.org/2000/svg" width="20" height="20" fill="none" viewBox="0 0 20 20">
    <path fill="#49D586" d="M10 20c-2.671 0-5.182-1.04-7.071-2.929C1.04 15.182 0 12.671 0 10c0-2.671 1.04-5.182 2.929-7.071C4.818 1.04 7.329 0 10 0c2.671 0 5.182 1.04 7.071 2.929C18.96 4.818 20 7.329 20 10c0 2.671-1.04 5.182-2.929 7.071C15.182 18.96 12.671 20 10 20zm0-18.75c-4.825 0-8.75 3.925-8.75 8.75s3.925 8.75 8.75 8.75 8.75-3.925 8.75-8.75S14.825 1.25 10 1.25z"/>
    <path fill="#49D586" d="M12.188 7.813c.345 0 .624-.28.624-.625v-.313c0-1.55-1.261-2.813-2.812-2.813-1.55 0-2.813 1.262-2.813 2.813V8.75H6.25c-.345 0-.625.28-.625.625s.28.625.625.625h.938v.311c0 .439-.171.85-.481 1.161l-1.524 1.524c-.179.178-.232.447-.135.68.096.234.324.386.577.386h1.901c.483 0 .957.132 1.371.38.608.365 1.305.558 2.014.558h1.277c.345 0 .624-.28.624-.625s-.28-.625-.624-.625H10.91c-.483 0-.957-.131-1.37-.38-.609-.365-1.305-.557-2.015-.557h-.392l.457-.457c.546-.546.846-1.272.846-2.045V10h.938c.345 0 .625-.28.625-.625s-.28-.625-.625-.625h-.938V6.875c0-.862.701-1.563 1.563-1.563s1.563.701 1.563 1.563v.313c0 .345.28.625.624.625z"/>
</svg>
