<svg xmlns="http://www.w3.org/2000/svg" width="80" height="80" fill="none" viewBox="0 0 80 80">
    <circle cx="40" cy="40" r="40" fill="url(#paint0_linear)"/>
    <rect width="69" height="69" x="6" y="7" fill="#fff" rx="34.5"/>
    <path fill="#E0E0E0" d="M19.627 44.757l.718-.416s.341-1.893.085-3.518c-.365-2.284-1.91-3.078-2.483-2.846-.56.232-.693.904.317 2.223.608.782 1.375 2.431 1.363 4.557z"/>
    <path fill="#fff" d="M19.944 44.048c-.05 0-.073-.037-.073-.073.17-2.847-.378-4.545-1.814-5.644-.037-.024-.037-.073-.012-.098.024-.036.073-.036.097-.012 1.485 1.136 2.033 2.859 1.875 5.766 0 .037-.025.061-.073.061z"/>
    <path fill="#F0F0F0" d="M17.473 45.978c-.11.061-.341-.073-.438-.134-.159-.098-.28-.245-.353-.416-.098-.195-.122-.39-.086-.61.013-.11.05-.22.073-.318.025-.11.061-.208.086-.318.024-.097.06-.207.048-.317-.024-.22-.219-.367-.39-.501-.194-.147-.389-.33-.389-.586 0-.196.11-.38.232-.538.121-.159.267-.293.377-.464.085-.122.146-.257.134-.403-.012-.086-.049-.171-.085-.257-.086-.17-.207-.317-.268-.5-.061-.184-.049-.404.085-.538.11-.11.292-.122.438-.11.146.012.28.073.414.146.414.233.645.709 1.071.892.17.074.353.086.523.135.17.049.353.134.439.293.158.318-.134.708-.025 1.05.098.306.39.416.548.684.073.123.085.257.073.391-.024.233-.049.404-.17.66-.098.22-.365.599-.365.599 0 .012-1.96 1.148-1.972 1.16z"/>
    <path fill="#fff" d="M18.641 45.367s-.012 0 0 0c-.048 0-.073-.036-.073-.085.207-1.637-.572-3.86-1.74-4.935-.025-.025-.037-.074 0-.098.024-.025.073-.037.097 0 1.217 1.124 1.996 3.347 1.79 5.057-.013.037-.037.061-.074.061z"/>
    <path fill="#fff" d="M18.434 43.217c-.012 0-.024 0-.036-.012-.621-.464-1.619-.378-1.619-.378-.037 0-.073-.025-.073-.062 0-.036.024-.073.06-.073.05 0 1.06-.085 1.717.415.037.025.037.074.012.098-.012.012-.036.012-.06.012zM18.337 42.814c-.037 0-.073-.036-.073-.073.036-.819.633-1.307.657-1.32.037-.024.073-.024.098.013.024.037.024.073-.013.098 0 0-.572.464-.608 1.209.012.037-.025.073-.061.073z"/>
    <path fill="#37474F" d="M60.97 36.938l-1.256 2.483.206.105 1.256-2.483-.206-.105zM58.651 36.743l-.197.122 1.224 1.984.197-.122-1.224-1.984z"/>
    <path fill="#37474F" d="M60.012 36.51v5.974c0 .025-.025.061-.061.074-.073.049-.195.049-.268 0-.037-.025-.06-.05-.06-.074v-5.973h.389z"/>
    <path fill="#49D586" d="M62.81 37.212c1.406-.595 2.066-2.22 1.474-3.632-.592-1.411-2.212-2.074-3.619-1.48-1.406.595-2.066 2.22-1.474 3.632.592 1.411 2.212 2.074 3.618 1.48z"/>
    <path fill="#000" d="M62.604 33.946c.353-1.124.742-1.564.5-1.71-.403-.233-.865-.355-1.364-.355-1.522 0-2.763 1.246-2.763 2.773 0 1.527 1.242 2.773 2.763 2.773.864 0 1.63-.39 2.13-1.014-.816.244-1.728-1.002-1.266-2.467z" opacity=".2"/>
    <path fill="#27DEBF" d="M58.758 36.822c.76-.763.76-2 0-2.764-.76-.763-1.994-.763-2.754 0s-.76 2.001 0 2.764c.76.764 1.994.764 2.754 0z"/>
    <path fill="#27DEBF" d="M57.383 33.493c-.426 0-.816.135-1.132.367-.05 1.185.949 2.358.669 2.748-.28.392-.974.147-1.217-.183.34.575.961.965 1.68.965 1.07 0 1.947-.867 1.947-1.954s-.864-1.943-1.947-1.943z"/>
    <path fill="#000" d="M57.383 33.493c-.426 0-.816.135-1.132.367-.05 1.185.949 2.358.669 2.748-.28.392-.974.147-1.217-.183.34.575.961.965 1.68.965 1.07 0 1.947-.867 1.947-1.954s-.864-1.943-1.947-1.943z" opacity=".2"/>
    <path fill="#49D586" d="M59.817 36.914c1.97 0 3.566-1.602 3.566-3.58 0-1.976-1.597-3.579-3.566-3.579-1.97 0-3.566 1.603-3.566 3.58s1.596 3.579 3.566 3.579z"/>
    <path fill="#000" d="M63.286 34.153c-.366 1.576-1.777 2.761-3.47 2.761-1.97 0-3.565-1.6-3.565-3.58 0-1.33.73-2.504 1.813-3.114-.304.17-.596.403-.84.66-.06.256-.097.537-.097.818 0 1.979 1.594 3.579 3.566 3.579 1.023 0 1.948-.44 2.593-1.124z" opacity=".1"/>
    <path fill="#27DEBF" d="M62.714 44.634L37.53 59.233c-.146.085-.377.085-.523 0l-20.74-12.021c-.146-.086-.268-.293-.268-.464v-.538c0-.17.122-.378.268-.464L41.45 31.172c.146-.085.378-.085.524 0L62.7 43.181c.146.085.268.293.268.464v.537c.012.171-.11.38-.255.452z"/>
    <path fill="#000" d="M62.714 44.634L37.53 59.233c-.146.085-.377.085-.523 0l-20.74-12.021c-.146-.086-.268-.293-.268-.464v-.538c0-.17.122-.378.268-.464L41.45 31.172c.146-.085.378-.085.524 0L62.7 43.181c.146.085.268.293.268.464v.537c.012.171-.11.38-.255.452z" opacity=".2"/>
    <path fill="#27DEBF" d="M62.981 43.645c0-.171-.121-.379-.267-.452l-.232-.134-25.219 14.61v1.625c.098 0 .195-.025.268-.061l25.183-14.586c.146-.086.267-.294.267-.452v-.55z"/>
    <path fill="#000" d="M62.981 43.645c0-.171-.121-.379-.267-.452l-.232-.134-25.219 14.61v1.625c.098 0 .195-.025.268-.061l25.183-14.586c.146-.086.267-.294.267-.452v-.55z" opacity=".2"/>
    <path fill="#49D586" d="M16.268 46.076l20.74 12.008c.146.086.377.086.523 0l25.183-14.586c.146-.085.146-.22 0-.305l-20.728-12.02c-.146-.086-.377-.086-.524 0L16.268 45.77c-.146.085-.146.22 0 .305z"/>
    <path fill="#F5F5F5" d="M27.32 49.105c.584-.342.584-.88 0-1.221l-2.63-1.527c-.121-.073-.121-.244 0-.318l1.205-.696-1.971-1.148-2.41 1.404c-.585.343-.585.88 0 1.222l2.629 1.515c.121.073.121.244 0 .318l-1.716.989 1.983 1.136 2.91-1.674z"/>
    <path fill="#E0E0E0" d="M34.306 40.481l6.426-3.726v6.878l-6.426 3.713v-6.865z"/>
    <path fill="#455A64" d="M38.614 39.7l-2.203 1.27c-.073.036-.134.146-.134.232v2.565c0 .086.061.122.134.073l2.203-1.27c.073-.037.134-.147.134-.232v-2.566c0-.085-.06-.122-.134-.073z"/>
    <path fill="#F5F5F5" d="M38.493 42.35s.012-.012.012-.024V40.04l-1.972 1.136s-.012.013-.012.025v2.284l1.972-1.136z"/>
    <path fill="#455A64" d="M38.748 40.909l-2.47 1.429v.293l2.47-1.43v-.292z"/>
    <path fill="#455A64" d="M37.64 40.261v2.87l-.243.135v-2.858l.244-.147z"/>
    <path fill="#263238" d="M34.306 47.346v.575l6.426-3.726v-.562l-6.426 3.713z"/>
    <path fill="#F0F0F0" d="M47.159 40.481l-6.427-3.726v6.878l6.427 3.713v-6.865z"/>
    <path fill="#455A64" d="M42.838 39.7l2.203 1.27c.073.036.134.146.134.232v2.565c0 .086-.061.122-.134.073l-2.203-1.27c-.073-.037-.134-.147-.134-.232v-2.566c0-.085.06-.122.134-.073z"/>
    <path fill="#F5F5F5" d="M42.96 42.35s-.013-.012-.013-.024V40.04l1.972 1.136s.012.013.012.025v2.284L42.96 42.35z"/>
    <path fill="#455A64" d="M42.704 40.909l2.47 1.429v.293l-2.47-1.43v-.292z"/>
    <path fill="#455A64" d="M43.824 40.261v2.87l.243.135v-2.858l-.243-.147zM47.159 47.346v.575l-6.427-3.726v-.562l6.427 3.713z"/>
    <path fill="#E0E0E0" d="M47.159 40.481l5.44-10.603 3.956 5.155v6.877l-9.396 5.436v-6.865z"/>
    <path fill="#455A64" d="M50.859 40.041l-2.203 1.283c-.073.037-.134.147-.134.232v2.565c0 .086.06.122.134.074l2.203-1.27c.073-.037.134-.147.134-.233v-2.565c0-.086-.061-.122-.134-.086z"/>
    <path fill="#F5F5F5" d="M50.737 42.704s.012-.012.012-.024v-2.285l-1.972 1.137s-.012.012-.012.024v2.284l1.972-1.136z"/>
    <path fill="#455A64" d="M50.993 41.263l-2.471 1.417v.293l2.47-1.43v-.28z"/>
    <path fill="#455A64" d="M49.873 40.615v2.871l-.244.135V40.75l.244-.135zM55.313 37.464l-2.203 1.27c-.073.037-.133.147-.133.232v2.566c0 .085.06.122.133.073l2.203-1.27c.073-.037.134-.147.134-.233v-2.565c-.012-.086-.06-.11-.134-.073z"/>
    <path fill="#F5F5F5" d="M55.192 40.114s.012-.012.012-.024v-2.284l-1.972 1.136s-.012.012-.012.024v2.285l1.972-1.136z"/>
    <path fill="#455A64" d="M55.435 38.673l-2.47 1.43v.292l2.47-1.429v-.293z"/>
    <path fill="#455A64" d="M54.328 38.026v2.883l-.244.134v-2.87l.243-.147zM51.492 33.677l1.217-.709c.073-.037.134-.012.134.073v2.566c0 .085-.061.183-.134.232l-1.217.709c-.073.036-.134.012-.134-.074V33.91c0-.098.06-.196.134-.232z"/>
    <path fill="#F5F5F5" d="M51.601 33.897s.012-.013.012-.025l.986-.562v2.285s-.012.012-.012.024l-.986.574v-2.296z"/>
    <path fill="#455A64" d="M52.6 34.312l-.999.586v.281l.998-.574v-.293z"/>
    <path fill="#263238" d="M47.159 47.346l9.396-5.436v.574l-9.396 5.436v-.574z"/>
    <path fill="#F5F5F5" d="M34.306 40.481l-5.44-10.603-3.957 5.155v6.877l9.397 5.436v-6.865z"/>
    <path fill="#263238" d="M25.895 42.484V37.33l1.984 1.136v5.168l-1.984-1.149z"/>
    <path fill="#455A64" d="M29.985 39.7l2.203 1.27c.073.036.134.146.134.232v2.565c0 .086-.061.122-.134.073l-2.203-1.27c-.073-.037-.134-.147-.134-.232v-2.566c0-.085.06-.122.134-.073z"/>
    <path fill="#F5F5F5" d="M30.107 42.35s-.013-.012-.013-.024V40.04l1.972 1.136s.012.013.012.025v2.284l-1.971-1.136z"/>
    <path fill="#455A64" d="M29.851 40.909l2.47 1.429v.293l-2.47-1.43v-.292z"/>
    <path fill="#455A64" d="M30.959 40.261v2.87l.255.135v-2.858l-.255-.147zM29.973 33.677l-1.217-.709c-.073-.037-.134-.012-.134.073v2.566c0 .085.06.183.134.232l1.217.709c.073.036.134.012.134-.074V33.91c-.013-.098-.061-.196-.134-.232z"/>
    <path fill="#F5F5F5" d="M29.851 33.897s-.012-.013-.012-.025l-.986-.562v2.285s.012.012.012.024l.986.574v-2.296z"/>
    <path fill="#455A64" d="M28.865 34.312l.986.586v.281l-.986-.574v-.293zM47.268 40.823l-6.536-3.787V23.281l11.965 6.939-5.429 10.603z"/>
    <path fill="#455A64" d="M52.6 29.878l-.123.22 4.346 4.776.219-.122-4.443-4.874z"/>
    <path fill="#263238" d="M56.823 34.874l-.268.159-4.053-4.423.158-.317 4.163 4.58z"/>
    <path fill="#8F9395" d="M47.159 40.481l-6.427-3.726V23L52.6 29.878 47.16 40.48z"/>
    <path fill="#455A64" d="M34.196 40.823l6.536-3.787V23.281L28.756 30.22l5.44 10.603z"/>
    <path fill="#455A64" d="M28.865 29.878l.11.22-4.333 4.776-.232-.122 4.455-4.874z"/>
    <path fill="#263238" d="M24.642 34.874l.267.159 4.041-4.423-.158-.317-4.15 4.58z"/>
    <path fill="#8E9395" d="M34.306 40.481l6.426-3.726V23l-11.867 6.878 5.44 10.603z"/>
    <path fill="#F0F0F0" d="M34.427 33.53l1.364 2.651v-2.87l-1.364-.783v1.002z"/>
    <path fill="#E0E0E0" d="M35.79 33.31l1.473-2.577.998 1.148v2.87l-2.47 1.43v-2.87z"/>
    <path fill="#455A64" d="M36.57 32.993l.912-.526c.05-.036.098 0 .098.061v1.918c0 .061-.049.135-.098.171l-.913.526c-.048.036-.097 0-.097-.061v-1.918c-.012-.061.037-.135.097-.171z"/>
    <path fill="#F5F5F5" d="M36.642 33.176l.013-.012.73-.428v1.723l-.012.012-.73.427v-1.722z"/>
    <path fill="#455A64" d="M37.397 33.481l-.755.44v.208l.755-.428v-.22z"/>
    <path fill="#263238" d="M37.263 30.733l.5.293.985 1.136-.487-.281-.998-1.148z"/>
    <path fill="#263238" d="M37.263 30.61l.5.294.985 1.136-.487-.281-.998-1.149z"/>
    <path fill="#37474F" d="M37.762 31.026l-1.971 2.858-1.984-1.148 1.984-2.858 1.971 1.148z"/>
    <path fill="#37474F" d="M37.762 30.904l-1.971 2.858-1.984-1.148 1.984-2.859 1.971 1.149z"/>
    <path fill="#455A64" d="M37.762 30.904v.122l.986 1.136v-.122l-.986-1.136zM37.762 30.904l-1.971 2.858v.122l1.971-2.858v-.122z"/>
    <path fill="#263238" d="M33.807 32.614v.122l1.984 1.148v-.122l-1.984-1.148z"/>
    <path fill="#E0E0E0" d="M47.037 33.53l-1.363 2.651v-2.87l1.363-.783v1.002z"/>
    <path fill="#F5F5F5" d="M45.674 33.31l-1.485-2.577-.986 1.148v2.87l2.47 1.43v-2.87z"/>
    <path fill="#455A64" d="M44.895 32.993l-.913-.526c-.049-.036-.097 0-.097.061v1.918c0 .061.048.135.097.171l.913.526c.048.036.097 0 .097-.061v-1.918c0-.061-.049-.135-.097-.171z"/>
    <path fill="#FAFAFA" d="M44.81 33.176l-.013-.012-.73-.428v1.723l.012.012.73.427v-1.722z"/>
    <path fill="#455A64" d="M44.067 33.481l.742.44v.208l-.742-.428v-.22z"/>
    <path fill="#263238" d="M44.189 30.733l-.5.293-.985 1.136.499-.281.986-1.148z"/>
    <path fill="#263238" d="M44.189 30.61l-.5.294-.985 1.136.499-.281.986-1.149z"/>
    <path fill="#37474F" d="M43.69 31.026l1.984 2.858 1.971-1.148-1.971-2.858-1.984 1.148z"/>
    <path fill="#455A64" d="M43.69 30.904l1.984 2.858 1.971-1.148-1.971-2.859-1.984 1.149z"/>
    <path fill="#455A64" d="M43.69 30.904v.122l-.986 1.136v-.122l.986-1.136zM43.69 30.904l1.984 2.858v.122l-1.984-2.858v-.122z"/>
    <path fill="#263238" d="M47.645 32.614v.122l-1.971 1.148v-.122l1.971-1.148zM34.306 47.346l-1.984 1.149v.574l1.984-1.149v-.574z"/>
    <path fill="#455A64" d="M32.322 48.495l-9.397-5.436v.574l9.397 5.436v-.574z"/>
    <path fill="#37474F" d="M24.91 41.91l-1.985 1.149 9.397 5.436 1.984-1.149-9.397-5.436z"/>
    <path fill="#263238" d="M32.078 47.786c0 .037.025.073.073.098.098.06.256.06.353 0 .049-.025.073-.061.073-.098v-7.085h-.499v7.085zM23.924 43.083c0 .037.024.073.073.098.097.06.255.06.352 0 .05-.025.073-.061.073-.098v-7.085h-.498v7.085z"/>
    <path fill="#8E9395" d="M34.306 40.481l-9.896-5.73-1.971 1.137 9.883 5.73 1.984-1.137z"/>
    <path fill="#263238" d="M32.322 41.617v.293l1.984-1.148v-.281l-1.984 1.136z"/>
    <path fill="#37474F" d="M32.322 41.617l-9.883-5.73v.294l9.883 5.73v-.294z"/>
    <path fill="#F0F0F0" d="M24.922 27.324l-.353.135v-.782c0-.61-.487-.77-1.023-.452-.535.305-.961 1.063-.961 1.674v.11c-.122-.05-.28-.025-.45.073-.378.22-.694.757-.694 1.21v.048l-.487.281c-.256.147-.463.5-.463.794 0 .293.207.415.463.269l3.968-2.297c.255-.146.462-.5.462-.794 0-.293-.207-.415-.462-.269zM20.942 27.593l-.633.367v-.269c0-.33-.232-.464-.512-.293-.11.06-.219.17-.304.293-.048-.415-.365-.574-.767-.342-.426.244-.766.843-.766 1.344v.28c0 .123.024.233.06.318l-.535.306c-.158.085-.28.317-.28.5 0 .184.134.257.28.171l3.457-2.015c.158-.086.28-.318.28-.501s-.122-.256-.28-.159z"/>
    <defs>
        <linearGradient id="paint0_linear" x1="0" x2="86" y1="21" y2="61" gradientUnits="userSpaceOnUse">
            <stop stop-color="#6563F7"/>
            <stop offset="1" stop-color="#6B69FA"/>
        </linearGradient>
    </defs>
</svg>
