<svg xmlns="http://www.w3.org/2000/svg" width="20" height="20" fill="none" viewBox="0 0 20 20">
    <path fill="#49D586" d="M19.336 18.21l-4.602-4.6c1.141-1.391 1.829-3.172 1.829-5.114 0-4.453-3.614-8.066-8.067-8.066C4.04.43.43 4.043.43 8.496c0 4.453 3.61 8.066 8.066 8.066 1.941 0 3.719-.683 5.11-1.824l4.601 4.598c.313.312.816.312 1.129 0 .312-.309.312-.816 0-1.125zm-10.84-3.253c-3.566 0-6.465-2.898-6.465-6.46 0-3.563 2.899-6.466 6.465-6.466 3.563 0 6.465 2.903 6.465 6.465 0 3.563-2.902 6.461-6.465 6.461z"/>
</svg>
