<svg xmlns="http://www.w3.org/2000/svg" width="20" height="20" fill="none" viewBox="0 0 20 20">
    <path fill="#49D586" d="M16.64 19.374H3.36c-.991 0-1.797-.806-1.797-1.797V8.124c0-.346.28-.625.625-.625s.624.28.624.625v9.453c0 .302.246.547.547.547h13.282c.301 0 .547-.245.547-.547V8.124c0-.346.28-.625.625-.625s.625.28.625.625v9.453c0 .991-.807 1.797-1.797 1.797z"/>
    <path fill="#49D586" d="M19.375 10.31c-.16 0-.32-.06-.442-.182L11.16 2.355c-.64-.64-1.68-.64-2.32 0l-7.773 7.773c-.244.244-.64.244-.884 0s-.244-.64 0-.884l7.773-7.773c1.127-1.127 2.96-1.127 4.088 0l7.773 7.773c.244.244.244.64 0 .884-.122.122-.282.183-.442.183zM12.5 19.374h-5c-.345 0-.625-.28-.625-.625v-5.546c0-1.077.876-1.954 1.953-1.954h2.344c1.077 0 1.953.877 1.953 1.954v5.546c0 .346-.28.625-.625.625zm-4.375-1.25h3.75v-4.921c0-.388-.315-.704-.703-.704H8.828c-.388 0-.703.316-.703.704v4.921z"/>
</svg>
