<svg xmlns="http://www.w3.org/2000/svg" width="65" height="45" viewBox="0 0 65 45">
    <g fill="none" fill-rule="evenodd">
        <g stroke="#6E6CFA">
            <g>
                <g>
                    <path stroke-width="4" d="M0 20.369C0 11.325 7.332 3.99 16.376 3.99c9.046 0 16.378 7.334 16.378 16.378s-7.332 16.376-16.378 16.376C7.332 36.745 0 29.413 0 20.369z" transform="translate(-392 -1904) translate(197 1855) translate(197 51)"/>
                    <path stroke-width="4" d="M19.506 20.369c0-11.25 9.12-20.37 20.368-20.37 11.25 0 20.368 9.12 20.368 20.37 0 11.248-9.118 20.368-20.368 20.368-11.248 0-20.368-9.12-20.368-20.368z" transform="translate(-392 -1904) translate(197 1855) translate(197 51)"/>
                    <path stroke-width="2" d="M22.063 14.033h8.18" transform="translate(-392 -1904) translate(197 1855) translate(197 51)"/>
                    <path stroke-width="2.408" d="M20.225 20.369H32.08" transform="translate(-392 -1904) translate(197 1855) translate(197 51)"/>
                    <path stroke-width="2.228" d="M21.08 26.703h10.142" transform="translate(-392 -1904) translate(197 1855) translate(197 51)"/>
                </g>
            </g>
        </g>
    </g>
</svg>
