<?xml version="1.0" encoding="utf-8"?>
<!-- Generator: Adobe Illustrator 12.0.0, SVG Export Plug-In . SVG Version: 6.00 Build 51448)  -->
<!DOCTYPE svg PUBLIC "-//W3C//DTD SVG 1.1//EN" "http://www.w3.org/Graphics/SVG/1.1/DTD/svg11.dtd" [
	<!ENTITY ns_svg "http://www.w3.org/2000/svg">
	<!ENTITY ns_xlink "http://www.w3.org/1999/xlink">
]>
<svg  version="1.1" id="Layer_1" xmlns="&ns_svg;" xmlns:xlink="&ns_xlink;" width="153.482" height="129.199"
	 viewBox="-95.703 -116.635 153.482 129.199" overflow="visible" enable-background="new -95.703 -116.635 153.482 129.199"
	 xml:space="preserve">
<g>
	<g>
		<g>
			<path fill="#FFFFFF" stroke="#FFFFFF" stroke-width="4" d="M-18.969-116l9.437,7.373l66.611,52.101l-7.177,9.134l-68.871-53.862
				l-68.862,53.862L-95-56.527v68.593H57.08V-116H-18.969z M36.496,6.563c0,3.037-2.463,5.5-5.5,5.5h-34.33v-51.625H-34.59v51.625
				h-34.327c-3.038,0-5.5-2.463-5.5-5.5v-55.434l27.713-22.136l27.746-22.127l55.455,44.263L36.496,6.563L36.496,6.563z"/>
			<polygon fill="#FFFFFF" stroke="#FFFFFF" stroke-width="4" points="-64.063,-109.607 -43.221,-109.607 -43.221,-97.029 
				-28.387,-108.627 -18.969,-116 -95,-116 -95,-56.527 -64.063,-80.725 			"/>
		</g>
	</g>
</g>
</svg>
